<?xml version="1.0" standalone="no"?>
 <!DOCTYPE svg PUBLIC "-//W3C//DTD SVG 1.1//EN" 
 "http://www.w3.org/Graphics/SVG/1.1/DTD/svg11.dtd"> 
<svg xmlns="http://www.w3.org/2000/svg" version="1.1" 
    width="29.7002cm" height="21.0007cm" viewBox="0 0 116929 82679 ">
<title>SVG Picture created as beta.svg date 2014/10/22 01:50:01 </title>
  <desc>Picture generated by Eeschema-SVG </desc>
<g style="fill:#000000; fill-opacity:1;stroke:#000000; stroke-opacity:1;
stroke-linecap:round; stroke-linejoin:round; "
 transform="translate(0 0) scale(1 1)">
</g>
<g style="fill:#000000; fill-opacity:0.0; 
stroke:#000000; stroke-width:0; stroke-opacity:1; 
stroke-linecap:round; stroke-linejoin:round;">
</g>
<g style="fill:#000000; fill-opacity:0.0; 
stroke:#000000; stroke-width:100; stroke-opacity:1; 
stroke-linecap:round; stroke-linejoin:round;">
<circle cx="29500" cy="47500" r="1500" /> 
</g>
<g style="fill:#000000; fill-opacity:0.0; 
stroke:#000000; stroke-width:60; stroke-opacity:1; 
stroke-linecap:round; stroke-linejoin:round;">
<path d="M29540 47400
L29600 47430
L29630 47460
L29660 47510
L29660 47630
L29630 47690
L29600 47710
L29540 47740
L29460 47740
L29400 47710
L29370 47690
" />
<path d="M29320 47940
L29340 47910
L29370 47860
L29370 47230
L29400 47170
L29460 47140
L29540 47140
L29600 47170
L29630 47230
L29630 47310
L29600 47370
L29540 47400
L29490 47400
" />
<path d="M29500 49000
L29500 50500
" />
<path d="M29500 46000
L29500 44500
" />
<path d="M31000 47500
L32500 47500
" />
<path d="M30140 49710
L30140 49110
L30340 49540
L30540 49110
L30540 49710
" />
<path d="M31120 49110
L30830 49110
L30800 49400
L30830 49370
L30890 49340
L31030 49340
L31090 49370
L31120 49400
L31150 49460
L31150 49600
L31120 49660
L31090 49680
L31030 49710
L30890 49710
L30830 49680
L30800 49660
" />
</g>
<g style="fill:#000000; fill-opacity:0.0; 
stroke:#000000; stroke-width:0; stroke-opacity:1; 
stroke-linecap:round; stroke-linejoin:round;">
</g>
<g style="fill:#000000; fill-opacity:0.0; 
stroke:#000000; stroke-width:60; stroke-opacity:1; 
stroke-linecap:round; stroke-linejoin:round;">
<path d="M33540 46930
L33630 46960
L33660 46990
L33690 47040
L33690 47130
L33660 47190
L33630 47210
L33570 47240
L33340 47240
L33340 46640
L33540 46640
L33600 46670
L33630 46700
L33660 46760
L33660 46810
L33630 46870
L33600 46900
L33540 46930
L33340 46930
" />
<path d="M36190 45190
L36160 45210
L36070 45240
L36010 45240
L35930 45210
L35870 45160
L35840 45100
L35810 44990
L35810 44900
L35840 44790
L35870 44730
L35930 44670
L36010 44640
L36070 44640
L36160 44670
L36190 44700
" />
<path d="M35870 49930
L36070 49930
" />
<path d="M36160 50240
L35870 50240
L35870 49640
L36160 49640
" />
<circle cx="35500" cy="47500" r="1600" /> 
<polyline fill="none;"
points="35500,47750
36500,48750
" /> 
<polyline fill="none;"
points="35500,47250
36500,46250
" /> 
</g>
<g style="fill:#000000; fill-opacity:0.0; 
stroke:#000000; stroke-width:100; stroke-opacity:1; 
stroke-linecap:round; stroke-linejoin:round;">
<polyline fill="none;"
points="35500,47000
35500,48000
" /> 
</g>
<g style="fill:#000000; fill-opacity:0.0; 
stroke:#000000; stroke-width:60; stroke-opacity:1; 
stroke-linecap:round; stroke-linejoin:round;">
<polyline fill="none;"
points="36500,48750
36500,50000
" /> 
<polyline fill="none;"
points="36500,45000
36500,46250
" /> 
</g>
<g style="fill:#000000; fill-opacity:1.0; 
stroke:#000000; stroke-width:60; stroke-opacity:1; 
stroke-linecap:round; stroke-linejoin:round;">
<polyline style="fill-rule:evenodd;"
points="36500,48750
36250,48250
36000,48500
36500,48750
" /> 
<path d="M35500 47500
L33000 47500
" />
</g>
<g style="fill:#000000; fill-opacity:0.0; 
stroke:#000000; stroke-width:60; stroke-opacity:1; 
stroke-linecap:round; stroke-linejoin:round;">
<path d="M36500 50000
L36500 50000
" />
<path d="M36500 45000
L36500 45000
" />
<path d="M34050 49110
L34390 49110
" />
<path d="M34220 49710
L34220 49110
" />
<path d="M34910 49710
L34560 49710
" />
<path d="M34740 49710
L34740 49110
L34680 49200
L34620 49260
L34560 49280
" />
<path d="M32500 47500
L33000 47500
" />
<path d="M29500 44500
L29500 44000
" />
<path d="M29500 44000
L36500 44000
" />
<path d="M36500 44000
L36500 45000
" />
<path d="M36500 50000
L36500 51000
" />
<path d="M36500 51000
L29500 51000
" />
<path d="M29500 51000
L29500 50500
" />
</g> 
</svg>
