<?xml version="1.0" standalone="no"?>
 <!DOCTYPE svg PUBLIC "-//W3C//DTD SVG 1.1//EN" 
 "http://www.w3.org/Graphics/SVG/1.1/DTD/svg11.dtd"> 
<svg xmlns="http://www.w3.org/2000/svg" version="1.1" 
    width="29.7002cm" height="21.0007cm" viewBox="0 0 116929 82679 ">
<title>SVG Picture created as sch.svg date 2014/10/21 21:27:44 </title>
  <desc>Picture generated by Eeschema-SVG </desc>
<g style="fill:#000000; fill-opacity:1;stroke:#000000; stroke-opacity:1;
stroke-linecap:round; stroke-linejoin:round; "
 transform="translate(0 0) scale(1 1)">
</g>
<g style="fill:#000000; fill-opacity:0.0; 
stroke:#000000; stroke-width:0; stroke-opacity:1; 
stroke-linecap:round; stroke-linejoin:round;">
</g>
<g style="fill:#000000; fill-opacity:0.0; 
stroke:#000000; stroke-width:60; stroke-opacity:1; 
stroke-linecap:round; stroke-linejoin:round;">
<path d="M21540 41930
L21630 41960
L21660 41990
L21690 42040
L21690 42130
L21660 42190
L21630 42210
L21570 42240
L21340 42240
L21340 41640
L21540 41640
L21600 41670
L21630 41700
L21660 41760
L21660 41810
L21630 41870
L21600 41900
L21540 41930
L21340 41930
" />
<path d="M24190 40190
L24160 40210
L24070 40240
L24010 40240
L23930 40210
L23870 40160
L23840 40100
L23810 39990
L23810 39900
L23840 39790
L23870 39730
L23930 39670
L24010 39640
L24070 39640
L24160 39670
L24190 39700
" />
<path d="M23870 44930
L24070 44930
" />
<path d="M24160 45240
L23870 45240
L23870 44640
L24160 44640
" />
<circle cx="23500" cy="42500" r="1600" /> 
<polyline fill="none;"
points="23500,42750
24500,43750
" /> 
<polyline fill="none;"
points="23500,42250
24500,41250
" /> 
</g>
<g style="fill:#000000; fill-opacity:0.0; 
stroke:#000000; stroke-width:100; stroke-opacity:1; 
stroke-linecap:round; stroke-linejoin:round;">
<polyline fill="none;"
points="23500,42000
23500,43000
" /> 
</g>
<g style="fill:#000000; fill-opacity:0.0; 
stroke:#000000; stroke-width:60; stroke-opacity:1; 
stroke-linecap:round; stroke-linejoin:round;">
<polyline fill="none;"
points="24500,43750
24500,45000
" /> 
<polyline fill="none;"
points="24500,40000
24500,41250
" /> 
</g>
<g style="fill:#000000; fill-opacity:1.0; 
stroke:#000000; stroke-width:60; stroke-opacity:1; 
stroke-linecap:round; stroke-linejoin:round;">
<polyline style="fill-rule:evenodd;"
points="24500,43750
24250,43250
24000,43500
24500,43750
" /> 
<path d="M23500 42500
L21000 42500
" />
</g>
<g style="fill:#000000; fill-opacity:0.0; 
stroke:#000000; stroke-width:60; stroke-opacity:1; 
stroke-linecap:round; stroke-linejoin:round;">
<path d="M24500 45000
L24500 45000
" />
<path d="M24500 40000
L24500 40000
" />
</g> 
</svg>
