<?xml version="1.0" standalone="no"?>
 <!DOCTYPE svg PUBLIC "-//W3C//DTD SVG 1.1//EN" 
 "http://www.w3.org/Graphics/SVG/1.1/DTD/svg11.dtd"> 
<svg xmlns="http://www.w3.org/2000/svg" version="1.1" 
    width="29.7002cm" height="21.0007cm" viewBox="0 0 116929 82679 ">
<title>SVG Picture created as sch.svg date 2014/10/21 21:35:56 </title>
  <desc>Picture generated by Eeschema-SVG </desc>
<g style="fill:#000000; fill-opacity:1;stroke:#000000; stroke-opacity:1;
stroke-linecap:round; stroke-linejoin:round; "
 transform="translate(0 0) scale(1 1)">
</g>
<g style="fill:#000000; fill-opacity:0.0; 
stroke:#000000; stroke-width:0; stroke-opacity:1; 
stroke-linecap:round; stroke-linejoin:round;">
</g>
<g style="fill:#000000; fill-opacity:0.0; 
stroke:#000000; stroke-width:60; stroke-opacity:1; 
stroke-linecap:round; stroke-linejoin:round;">
<polyline fill="none;"
points="19000,41500
18000,41500
" /> 
<polyline fill="none;"
points="18500,40500
19000,41500
" /> 
<polyline fill="none;"
points="18000,40500
19000,40500
" /> 
<polyline fill="none;"
points="18000,41500
18500,40500
" /> 
<path d="M18500 40500
L18500 40000
" />
<path d="M18500 41500
L18500 42000
" />
</g>
<g style="fill:#000000; fill-opacity:0.0; 
stroke:#000000; stroke-width:0; stroke-opacity:1; 
stroke-linecap:round; stroke-linejoin:round;">
</g>
<g style="fill:#000000; fill-opacity:0.0; 
stroke:#000000; stroke-width:60; stroke-opacity:1; 
stroke-linecap:round; stroke-linejoin:round;">
<polyline fill="none;"
points="18000,42500
19000,42500
" /> 
<polyline fill="none;"
points="18500,43500
18000,42500
" /> 
<polyline fill="none;"
points="19000,43500
18000,43500
" /> 
<polyline fill="none;"
points="19000,42500
18500,43500
" /> 
<path d="M18500 43500
L18500 44000
" />
<path d="M18500 42500
L18500 42000
" />
<path d="M18500 44000
L18500 44500
" />
<path d="M18500 40000
L18500 39500
" />
<path d="M18500 42000
L16500 42000
" />
</g>
<g style="fill:#000000; fill-opacity:0.0; 
stroke:#000000; stroke-width:0; stroke-opacity:1; 
stroke-linecap:round; stroke-linejoin:round;">
</g>
<g style="fill:#000000; fill-opacity:1.0; 
stroke:#000000; stroke-width:100; stroke-opacity:1; 
stroke-linecap:round; stroke-linejoin:round;">
<circle cx="18500" cy="42000" r="160" /> 
</g>
<g style="fill:#000000; fill-opacity:1.0; 
stroke:#000000; stroke-width:60; stroke-opacity:1; 
stroke-linecap:round; stroke-linejoin:round;">
</g>
<g style="fill:#000000; fill-opacity:0.0; 
stroke:#000000; stroke-width:60; stroke-opacity:1; 
stroke-linecap:round; stroke-linejoin:round;">
<path d="M17990 39790
L17960 39810
L17870 39840
L17810 39840
L17730 39810
L17670 39760
L17640 39700
L17610 39590
L17610 39500
L17640 39390
L17670 39330
L17730 39270
L17810 39240
L17870 39240
L17960 39270
L17990 39300
" />
<path d="M17640 44530
L17840 44530
" />
<path d="M17930 44840
L17640 44840
L17640 44240
L17930 44240
" />
<path d="M16840 41530
L16930 41560
L16960 41590
L16990 41640
L16990 41730
L16960 41790
L16930 41810
L16870 41840
L16640 41840
L16640 41240
L16840 41240
L16900 41270
L16930 41300
L16960 41360
L16960 41410
L16930 41470
L16900 41500
L16840 41530
L16640 41530
" />
</g> 
</svg>
