<?xml version="1.0" standalone="no"?>
 <!DOCTYPE svg PUBLIC "-//W3C//DTD SVG 1.1//EN" 
 "http://www.w3.org/Graphics/SVG/1.1/DTD/svg11.dtd"> 
<svg xmlns="http://www.w3.org/2000/svg" version="1.1" 
    width="29.7002cm" height="21.0007cm" viewBox="0 0 116929 82679 ">
<title>SVG Picture created as beta.svg date 2014/10/22 01:46:16 </title>
  <desc>Picture generated by Eeschema-SVG </desc>
<g style="fill:#000000; fill-opacity:1;stroke:#000000; stroke-opacity:1;
stroke-linecap:round; stroke-linejoin:round; "
 transform="translate(0 0) scale(1 1)">
</g>
<g style="fill:#000000; fill-opacity:0.0; 
stroke:#000000; stroke-width:0; stroke-opacity:1; 
stroke-linecap:round; stroke-linejoin:round;">
</g>
<g style="fill:#000000; fill-opacity:0.0; 
stroke:#000000; stroke-width:60; stroke-opacity:1; 
stroke-linecap:round; stroke-linejoin:round;">
<rect x="38500" y="45500" width="1000" height="3000" rx="0" />
<polyline fill="none;"
points="40500,48500
37500,45500
" /> 
</g>
<g style="fill:#000000; fill-opacity:1.0; 
stroke:#000000; stroke-width:60; stroke-opacity:1; 
stroke-linecap:round; stroke-linejoin:round;">
<polyline style="fill-rule:evenodd;"
points="37500,45900
37500,45500
37900,45500
37500,45900
" /> 
<path d="M40500 48500
L40500 48500
" />
</g>
<g style="fill:#000000; fill-opacity:0.0; 
stroke:#000000; stroke-width:60; stroke-opacity:1; 
stroke-linecap:round; stroke-linejoin:round;">
<path d="M39000 48500
L39000 50000
" />
<path d="M39000 45500
L39000 44000
" />
<path d="M40320 46710
L40120 46430
" />
<path d="M39970 46710
L39970 46110
L40200 46110
L40260 46140
L40290 46170
L40320 46230
L40320 46310
L40290 46370
L40260 46400
L40200 46430
L39970 46430
" />
<path d="M40860 46110
L40570 46110
L40540 46400
L40570 46370
L40630 46340
L40770 46340
L40830 46370
L40860 46400
L40890 46460
L40890 46600
L40860 46660
L40830 46680
L40770 46710
L40630 46710
L40570 46680
L40540 46660
" />
</g>
<g style="fill:#000000; fill-opacity:0.0; 
stroke:#000000; stroke-width:0; stroke-opacity:1; 
stroke-linecap:round; stroke-linejoin:round;">
</g>
<g style="fill:#000000; fill-opacity:0.0; 
stroke:#000000; stroke-width:100; stroke-opacity:1; 
stroke-linecap:round; stroke-linejoin:round;">
<circle cx="34000" cy="47000" r="1500" /> 
</g>
<g style="fill:#000000; fill-opacity:0.0; 
stroke:#000000; stroke-width:60; stroke-opacity:1; 
stroke-linecap:round; stroke-linejoin:round;">
<path d="M33770 47240
L33920 47240
L33920 47130
L33860 47100
L33800 47040
L33770 46960
L33770 46810
L33800 46730
L33860 46670
L33950 46640
L34060 46640
L34150 46670
L34200 46730
L34230 46810
L34230 46960
L34200 47040
L34150 47100
L34090 47130
L34090 47240
L34230 47240
" />
<path d="M34000 48500
L34000 50000
" />
<path d="M34000 45500
L34000 44000
" />
<path d="M34640 49210
L34640 48610
L34840 49040
L35040 48610
L35040 49210
" />
<path d="M35620 48610
L35330 48610
L35300 48900
L35330 48870
L35390 48840
L35530 48840
L35590 48870
L35620 48900
L35650 48960
L35650 49100
L35620 49160
L35590 49180
L35530 49210
L35390 49210
L35330 49180
L35300 49160
" />
<path d="M40500 50500
L40500 48500
" />
<path d="M34000 50500
L40500 50500
" />
<path d="M39000 50500
L39000 50000
" />
<path d="M34000 50500
L34000 50000
" />
</g>
<g style="fill:#000000; fill-opacity:0.0; 
stroke:#000000; stroke-width:0; stroke-opacity:1; 
stroke-linecap:round; stroke-linejoin:round;">
</g>
<g style="fill:#000000; fill-opacity:1.0; 
stroke:#000000; stroke-width:100; stroke-opacity:1; 
stroke-linecap:round; stroke-linejoin:round;">
<circle cx="39000" cy="50500" r="160" /> 
</g>
<g style="fill:#000000; fill-opacity:1.0; 
stroke:#000000; stroke-width:60; stroke-opacity:1; 
stroke-linecap:round; stroke-linejoin:round;">
<path d="M34000 44000
L34000 43500
" />
<path d="M34000 43500
L39000 43500
" />
<path d="M39000 43500
L39000 44000
" />
</g> 
</svg>
