<?xml version="1.0" standalone="no"?>
 <!DOCTYPE svg PUBLIC "-//W3C//DTD SVG 1.1//EN" 
 "http://www.w3.org/Graphics/SVG/1.1/DTD/svg11.dtd"> 
<svg xmlns="http://www.w3.org/2000/svg" version="1.1" 
    width="29.7002cm" height="21.0007cm" viewBox="0 0 116929 82679 ">
<title>SVG Picture created as sch.svg date 2014/10/21 21:29:08 </title>
  <desc>Picture generated by Eeschema-SVG </desc>
<g style="fill:#000000; fill-opacity:1;stroke:#000000; stroke-opacity:1;
stroke-linecap:round; stroke-linejoin:round; "
 transform="translate(0 0) scale(1 1)">
</g>
<g style="fill:#000000; fill-opacity:0.0; 
stroke:#000000; stroke-width:0; stroke-opacity:1; 
stroke-linecap:round; stroke-linejoin:round;">
</g>
<g style="fill:#000000; fill-opacity:0.0; 
stroke:#000000; stroke-width:60; stroke-opacity:1; 
stroke-linecap:round; stroke-linejoin:round;">
<path d="M21040 43430
L21130 43460
L21160 43490
L21190 43540
L21190 43630
L21160 43690
L21130 43710
L21070 43740
L20840 43740
L20840 43140
L21040 43140
L21100 43170
L21130 43200
L21160 43260
L21160 43310
L21130 43370
L21100 43400
L21040 43430
L20840 43430
" />
<path d="M23690 41690
L23660 41710
L23570 41740
L23510 41740
L23430 41710
L23370 41660
L23340 41600
L23310 41490
L23310 41400
L23340 41290
L23370 41230
L23430 41170
L23510 41140
L23570 41140
L23660 41170
L23690 41200
" />
<path d="M23370 46430
L23570 46430
" />
<path d="M23660 46740
L23370 46740
L23370 46140
L23660 46140
" />
<circle cx="23000" cy="44000" r="1600" /> 
<polyline fill="none;"
points="23000,44250
24000,45250
" /> 
<polyline fill="none;"
points="23000,43750
24000,42750
" /> 
</g>
<g style="fill:#000000; fill-opacity:0.0; 
stroke:#000000; stroke-width:100; stroke-opacity:1; 
stroke-linecap:round; stroke-linejoin:round;">
<polyline fill="none;"
points="23000,43500
23000,44500
" /> 
</g>
<g style="fill:#000000; fill-opacity:0.0; 
stroke:#000000; stroke-width:60; stroke-opacity:1; 
stroke-linecap:round; stroke-linejoin:round;">
<polyline fill="none;"
points="24000,45250
24000,46500
" /> 
<polyline fill="none;"
points="24000,41500
24000,42750
" /> 
</g>
<g style="fill:#000000; fill-opacity:1.0; 
stroke:#000000; stroke-width:60; stroke-opacity:1; 
stroke-linecap:round; stroke-linejoin:round;">
<polyline style="fill-rule:evenodd;"
points="23000,44250
23250,44750
23500,44500
23000,44250
" /> 
<path d="M23000 44000
L20500 44000
" />
</g>
<g style="fill:#000000; fill-opacity:0.0; 
stroke:#000000; stroke-width:60; stroke-opacity:1; 
stroke-linecap:round; stroke-linejoin:round;">
<path d="M24000 46500
L24000 46500
" />
<path d="M24000 41500
L24000 41500
" />
</g> 
</svg>
