<?xml version="1.0" standalone="no"?>
 <!DOCTYPE svg PUBLIC "-//W3C//DTD SVG 1.1//EN" 
 "http://www.w3.org/Graphics/SVG/1.1/DTD/svg11.dtd"> 
<svg xmlns="http://www.w3.org/2000/svg" version="1.1" 
    width="29.7002cm" height="21.0007cm" viewBox="0 0 116929 82679 ">
<title>SVG Picture created as sch2.svg date 2014/10/22 01:32:38 </title>
  <desc>Picture generated by Eeschema-SVG </desc>
<g style="fill:#000000; fill-opacity:1;stroke:#000000; stroke-opacity:1;
stroke-linecap:round; stroke-linejoin:round; "
 transform="translate(0 0) scale(1 1)">
</g>
<g style="fill:#000000; fill-opacity:0.0; 
stroke:#000000; stroke-width:0; stroke-opacity:1; 
stroke-linecap:round; stroke-linejoin:round;">
</g>
<g style="fill:#000000; fill-opacity:0.0; 
stroke:#000000; stroke-width:60; stroke-opacity:1; 
stroke-linecap:round; stroke-linejoin:round;">
<path d="M44540 40930
L44630 40960
L44660 40990
L44690 41040
L44690 41130
L44660 41190
L44630 41210
L44570 41240
L44340 41240
L44340 40640
L44540 40640
L44600 40670
L44630 40700
L44660 40760
L44660 40810
L44630 40870
L44600 40900
L44540 40930
L44340 40930
" />
<path d="M47190 39190
L47160 39210
L47070 39240
L47010 39240
L46930 39210
L46870 39160
L46840 39100
L46810 38990
L46810 38900
L46840 38790
L46870 38730
L46930 38670
L47010 38640
L47070 38640
L47160 38670
L47190 38700
" />
<path d="M46870 43930
L47070 43930
" />
<path d="M47160 44240
L46870 44240
L46870 43640
L47160 43640
" />
<circle cx="46500" cy="41500" r="1600" /> 
<polyline fill="none;"
points="46500,41750
47500,42750
" /> 
<polyline fill="none;"
points="46500,41250
47500,40250
" /> 
</g>
<g style="fill:#000000; fill-opacity:0.0; 
stroke:#000000; stroke-width:100; stroke-opacity:1; 
stroke-linecap:round; stroke-linejoin:round;">
<polyline fill="none;"
points="46500,41000
46500,42000
" /> 
</g>
<g style="fill:#000000; fill-opacity:0.0; 
stroke:#000000; stroke-width:60; stroke-opacity:1; 
stroke-linecap:round; stroke-linejoin:round;">
<polyline fill="none;"
points="47500,42750
47500,44000
" /> 
<polyline fill="none;"
points="47500,39000
47500,40250
" /> 
</g>
<g style="fill:#000000; fill-opacity:1.0; 
stroke:#000000; stroke-width:60; stroke-opacity:1; 
stroke-linecap:round; stroke-linejoin:round;">
<polyline style="fill-rule:evenodd;"
points="47500,42750
47250,42250
47000,42500
47500,42750
" /> 
<path d="M46500 41500
L44000 41500
" />
</g>
<g style="fill:#000000; fill-opacity:0.0; 
stroke:#000000; stroke-width:60; stroke-opacity:1; 
stroke-linecap:round; stroke-linejoin:round;">
<path d="M47500 44000
L47500 44000
" />
<path d="M47500 39000
L47500 39000
" />
<path d="M45050 43110
L45390 43110
" />
<path d="M45220 43710
L45220 43110
" />
<path d="M45910 43710
L45560 43710
" />
<path d="M45740 43710
L45740 43110
L45680 43200
L45620 43260
L45560 43280
" />
</g>
<g style="fill:#000000; fill-opacity:0.0; 
stroke:#000000; stroke-width:0; stroke-opacity:1; 
stroke-linecap:round; stroke-linejoin:round;">
</g>
<g style="fill:#000000; fill-opacity:0.0; 
stroke:#000000; stroke-width:60; stroke-opacity:1; 
stroke-linecap:round; stroke-linejoin:round;">
<rect x="43000" y="33500" width="1000" height="3000" rx="0" />
<path d="M43500 36500
L43500 38000
" />
<path d="M43500 33500
L43500 32000
" />
<path d="M44990 34710
L44790 34430
" />
<path d="M44640 34710
L44640 34110
L44870 34110
L44930 34140
L44960 34170
L44990 34230
L44990 34310
L44960 34370
L44930 34400
L44870 34430
L44640 34430
" />
<path d="M45560 34710
L45210 34710
" />
<path d="M45390 34710
L45390 34110
L45330 34200
L45270 34260
L45210 34280
" />
</g>
<g style="fill:#000000; fill-opacity:0.0; 
stroke:#000000; stroke-width:0; stroke-opacity:1; 
stroke-linecap:round; stroke-linejoin:round;">
</g>
<g style="fill:#000000; fill-opacity:0.0; 
stroke:#000000; stroke-width:60; stroke-opacity:1; 
stroke-linecap:round; stroke-linejoin:round;">
<rect x="47000" y="46500" width="1000" height="3000" rx="0" />
<path d="M47500 49500
L47500 51000
" />
<path d="M47500 46500
L47500 45000
" />
<path d="M48990 47710
L48790 47430
" />
<path d="M48640 47710
L48640 47110
L48870 47110
L48930 47140
L48960 47170
L48990 47230
L48990 47310
L48960 47370
L48930 47400
L48870 47430
L48640 47430
" />
<path d="M49190 47110
L49560 47110
L49360 47340
L49440 47340
L49500 47370
L49530 47400
L49560 47460
L49560 47600
L49530 47660
L49500 47680
L49440 47710
L49270 47710
L49210 47680
L49190 47660
" />
</g>
<g style="fill:#000000; fill-opacity:0.0; 
stroke:#000000; stroke-width:0; stroke-opacity:1; 
stroke-linecap:round; stroke-linejoin:round;">
</g>
<g style="fill:#000000; fill-opacity:0.0; 
stroke:#000000; stroke-width:60; stroke-opacity:1; 
stroke-linecap:round; stroke-linejoin:round;">
<rect x="43000" y="46500" width="1000" height="3000" rx="0" />
<path d="M43500 49500
L43500 51000
" />
<path d="M43500 46500
L43500 45000
" />
<path d="M44990 47710
L44790 47430
" />
<path d="M44640 47710
L44640 47110
L44870 47110
L44930 47140
L44960 47170
L44990 47230
L44990 47310
L44960 47370
L44930 47400
L44870 47430
L44640 47430
" />
<path d="M45210 47170
L45240 47140
L45300 47110
L45440 47110
L45500 47140
L45530 47170
L45560 47230
L45560 47280
L45530 47370
L45190 47710
L45560 47710
" />
</g>
<g style="fill:#000000; fill-opacity:0.0; 
stroke:#000000; stroke-width:0; stroke-opacity:1; 
stroke-linecap:round; stroke-linejoin:round;">
</g>
<g style="fill:#000000; fill-opacity:0.0; 
stroke:#000000; stroke-width:60; stroke-opacity:1; 
stroke-linecap:round; stroke-linejoin:round;">
<rect x="47000" y="33500" width="1000" height="3000" rx="0" />
<path d="M47500 36500
L47500 38000
" />
<path d="M47500 33500
L47500 32000
" />
<path d="M48990 34710
L48790 34430
" />
<path d="M48640 34710
L48640 34110
L48870 34110
L48930 34140
L48960 34170
L48990 34230
L48990 34310
L48960 34370
L48930 34400
L48870 34430
L48640 34430
" />
<path d="M49500 34310
L49500 34710
" />
<path d="M49360 34080
L49210 34510
L49590 34510
" />
</g>
<g style="fill:#000000; fill-opacity:0.0; 
stroke:#000000; stroke-width:0; stroke-opacity:1; 
stroke-linecap:round; stroke-linejoin:round;">
</g>
<g style="fill:#000000; fill-opacity:0.0; 
stroke:#000000; stroke-width:100; stroke-opacity:1; 
stroke-linecap:round; stroke-linejoin:round;">
<circle cx="54500" cy="48000" r="1500" /> 
</g>
<g style="fill:#000000; fill-opacity:0.0; 
stroke:#000000; stroke-width:60; stroke-opacity:1; 
stroke-linecap:round; stroke-linejoin:round;">
<path d="M53990 48240
L53990 47840
" />
<path d="M53990 47900
L54020 47870
L54080 47840
L54160 47840
L54220 47870
L54250 47930
L54250 48240
" />
<path d="M54250 47930
L54280 47870
L54340 47840
L54420 47840
L54480 47870
L54510 47930
L54510 48240
" />
<path d="M54710 47640
L54910 48240
L55110 47640
" />
<path d="M54500 49500
L54500 51000
" />
<path d="M54500 46500
L54500 45000
" />
<path d="M55140 50210
L55140 49610
L55340 50040
L55540 49610
L55540 50210
" />
<path d="M55800 49670
L55830 49640
L55890 49610
L56030 49610
L56090 49640
L56120 49670
L56150 49730
L56150 49780
L56120 49870
L55780 50210
L56150 50210
" />
</g>
<g style="fill:#000000; fill-opacity:0.0; 
stroke:#000000; stroke-width:0; stroke-opacity:1; 
stroke-linecap:round; stroke-linejoin:round;">
</g>
<g style="fill:#000000; fill-opacity:0.0; 
stroke:#000000; stroke-width:60; stroke-opacity:1; 
stroke-linecap:round; stroke-linejoin:round;">
<path d="M27310 40640
L27710 40640
L27310 41240
L27710 41240
" />
</g>
<g style="fill:#000000; fill-opacity:0.0; 
stroke:#000000; stroke-width:100; stroke-opacity:1; 
stroke-linecap:round; stroke-linejoin:round;">
<polyline fill="none;"
points="27000,42250
28000,42250
" /> 
<polyline fill="none;"
points="27000,42000
28000,42000
" /> 
<rect x="26000" y="40000" width="3000" height="3000" rx="0" />
</g>
<g style="fill:#000000; fill-opacity:0.0; 
stroke:#000000; stroke-width:60; stroke-opacity:1; 
stroke-linecap:round; stroke-linejoin:round;">
<polyline fill="none;"
points="26000,43000
25500,43500
" /> 
<polyline fill="none;"
points="29000,40000
29500,39500
" /> 
</g>
<g style="fill:#000000; fill-opacity:1.0; 
stroke:#000000; stroke-width:60; stroke-opacity:1; 
stroke-linecap:round; stroke-linejoin:round;">
<polyline style="fill-rule:evenodd;"
points="29500,39500
29500,39900
29100,39500
29500,39500
" /> 
<path d="M27500 40000
L27500 38500
" />
</g>
<g style="fill:#000000; fill-opacity:0.0; 
stroke:#000000; stroke-width:60; stroke-opacity:1; 
stroke-linecap:round; stroke-linejoin:round;">
<path d="M27160 39440
L27160 39060
" />
<path d="M27350 39250
L26970 39250
" />
<path d="M27500 43000
L27500 44500
" />
<path d="M28340 43360
L28740 43360
L28340 43960
L28740 43960
" />
<path d="M29280 43960
L28930 43960
" />
<path d="M29110 43960
L29110 43360
L29050 43450
L28990 43510
L28930 43530
" />
</g>
<g style="fill:#000000; fill-opacity:0.0; 
stroke:#000000; stroke-width:0; stroke-opacity:1; 
stroke-linecap:round; stroke-linejoin:round;">
</g>
<g style="fill:#000000; fill-opacity:0.0; 
stroke:#000000; stroke-width:60; stroke-opacity:1; 
stroke-linecap:round; stroke-linejoin:round;">
<path d="M31790 47930
L31590 47930
" />
<path d="M31590 48240
L31590 47640
L31880 47640
" />
<path d="M32420 47670
L32360 47640
L32270 47640
L32190 47670
L32130 47730
L32100 47790
L32070 47900
L32070 47990
L32100 48100
L32130 48160
L32190 48210
L32270 48240
L32330 48240
L32420 48210
L32450 48190
L32450 47990
L32330 47990
" />
<polyline fill="none;"
points="30000,50000
30500,49500
" /> 
<polyline fill="none;"
points="33500,46500
34000,46000
" /> 
</g>
<g style="fill:#000000; fill-opacity:1.0; 
stroke:#000000; stroke-width:60; stroke-opacity:1; 
stroke-linecap:round; stroke-linejoin:round;">
<polyline style="fill-rule:evenodd;"
points="34000,46000
34000,46400
33600,46000
34000,46000
" /> 
</g>
<g style="fill:#000000; fill-opacity:0.0; 
stroke:#000000; stroke-width:100; stroke-opacity:1; 
stroke-linecap:round; stroke-linejoin:round;">
<rect x="30500" y="46500" width="3000" height="3000" rx="0" />
</g>
<g style="fill:#000000; fill-opacity:0.0; 
stroke:#000000; stroke-width:60; stroke-opacity:1; 
stroke-linecap:round; stroke-linejoin:round;">
<path d="M32000 49500
L32000 51000
" />
<path d="M32000 46500
L32000 45000
" />
</g>
<g style="fill:#000000; fill-opacity:0.0; 
stroke:#000000; stroke-width:0; stroke-opacity:1; 
stroke-linecap:round; stroke-linejoin:round;">
</g>
<g style="fill:#000000; fill-opacity:0.0; 
stroke:#000000; stroke-width:100; stroke-opacity:1; 
stroke-linecap:round; stroke-linejoin:round;">
<polyline fill="none;"
points="40750,42500
40750,40500
" /> 
<polyline fill="none;"
points="40250,42500
40250,40500
" /> 
</g>
<g style="fill:#000000; fill-opacity:0.0; 
stroke:#000000; stroke-width:60; stroke-opacity:1; 
stroke-linecap:round; stroke-linejoin:round;">
<path d="M40750 41500
L42000 41500
" />
<path d="M40250 41500
L39000 41500
" />
<path d="M39320 40220
L39290 40240
L39200 40270
L39140 40270
L39060 40240
L39000 40190
L38970 40130
L38940 40020
L38940 39930
L38970 39820
L39000 39760
L39060 39700
L39140 39670
L39200 39670
L39290 39700
L39320 39730
" />
<path d="M39890 40270
L39540 40270
" />
<path d="M39720 40270
L39720 39670
L39660 39760
L39600 39820
L39540 39840
" />
</g>
<g style="fill:#000000; fill-opacity:0.0; 
stroke:#000000; stroke-width:0; stroke-opacity:1; 
stroke-linecap:round; stroke-linejoin:round;">
</g>
<g style="fill:#000000; fill-opacity:0.0; 
stroke:#000000; stroke-width:100; stroke-opacity:1; 
stroke-linecap:round; stroke-linejoin:round;">
<polyline fill="none;"
points="51250,39500
51250,37500
" /> 
<polyline fill="none;"
points="50750,39500
50750,37500
" /> 
</g>
<g style="fill:#000000; fill-opacity:0.0; 
stroke:#000000; stroke-width:60; stroke-opacity:1; 
stroke-linecap:round; stroke-linejoin:round;">
<path d="M51250 38500
L52500 38500
" />
<path d="M50750 38500
L49500 38500
" />
<path d="M49820 37220
L49790 37240
L49700 37270
L49640 37270
L49560 37240
L49500 37190
L49470 37130
L49440 37020
L49440 36930
L49470 36820
L49500 36760
L49560 36700
L49640 36670
L49700 36670
L49790 36700
L49820 36730
" />
<path d="M50040 36730
L50070 36700
L50130 36670
L50270 36670
L50330 36700
L50360 36730
L50390 36790
L50390 36840
L50360 36930
L50020 37270
L50390 37270
" />
</g>
<g style="fill:#000000; fill-opacity:0.0; 
stroke:#000000; stroke-width:0; stroke-opacity:1; 
stroke-linecap:round; stroke-linejoin:round;">
</g>
<g style="fill:#000000; fill-opacity:0.0; 
stroke:#000000; stroke-width:60; stroke-opacity:1; 
stroke-linecap:round; stroke-linejoin:round;">
<circle cx="43500" cy="31000" r="200" /> 
<polyline fill="none;"
points="43500,31500
43500,31200
43500,31200
" /> 
</g>
<g style="fill:#000000; fill-opacity:0.0; 
stroke:#000000; stroke-width:50; stroke-opacity:1; 
stroke-linecap:round; stroke-linejoin:round;">
<path d="M43100 30300
L43200 30600
L43300 30300
" />
<path d="M43570 30570
L43560 30590
L43520 30600
L43490 30600
L43440 30590
L43420 30560
L43400 30530
L43390 30470
L43390 30430
L43400 30370
L43420 30340
L43440 30320
L43490 30300
L43520 30300
L43560 30320
L43570 30330
" />
<path d="M43870 30570
L43860 30590
L43820 30600
L43790 30600
L43740 30590
L43720 30560
L43700 30530
L43690 30470
L43690 30430
L43700 30370
L43720 30340
L43740 30320
L43790 30300
L43820 30300
L43860 30320
L43870 30330
" />
</g>
<g style="fill:#000000; fill-opacity:0.0; 
stroke:#000000; stroke-width:0; stroke-opacity:1; 
stroke-linecap:round; stroke-linejoin:round;">
</g>
<g style="fill:#000000; fill-opacity:0.0; 
stroke:#000000; stroke-width:60; stroke-opacity:1; 
stroke-linecap:round; stroke-linejoin:round;">
<circle cx="47500" cy="31000" r="200" /> 
<polyline fill="none;"
points="47500,31500
47500,31200
47500,31200
" /> 
</g>
<g style="fill:#000000; fill-opacity:0.0; 
stroke:#000000; stroke-width:50; stroke-opacity:1; 
stroke-linecap:round; stroke-linejoin:round;">
<path d="M47100 30300
L47200 30600
L47300 30300
" />
<path d="M47570 30570
L47560 30590
L47520 30600
L47490 30600
L47440 30590
L47420 30560
L47400 30530
L47390 30470
L47390 30430
L47400 30370
L47420 30340
L47440 30320
L47490 30300
L47520 30300
L47560 30320
L47570 30330
" />
<path d="M47870 30570
L47860 30590
L47820 30600
L47790 30600
L47740 30590
L47720 30560
L47700 30530
L47690 30470
L47690 30430
L47700 30370
L47720 30340
L47740 30320
L47790 30300
L47820 30300
L47860 30320
L47870 30330
" />
</g>
<g style="fill:#000000; fill-opacity:0.0; 
stroke:#000000; stroke-width:0; stroke-opacity:1; 
stroke-linecap:round; stroke-linejoin:round;">
</g>
<g style="fill:#000000; fill-opacity:0.0; 
stroke:#000000; stroke-width:60; stroke-opacity:1; 
stroke-linecap:round; stroke-linejoin:round;">
<circle cx="27500" cy="31000" r="200" /> 
<polyline fill="none;"
points="27500,31500
27500,31200
27500,31200
" /> 
</g>
<g style="fill:#000000; fill-opacity:0.0; 
stroke:#000000; stroke-width:50; stroke-opacity:1; 
stroke-linecap:round; stroke-linejoin:round;">
<path d="M27100 30300
L27200 30600
L27300 30300
" />
<path d="M27570 30570
L27560 30590
L27520 30600
L27490 30600
L27440 30590
L27420 30560
L27400 30530
L27390 30470
L27390 30430
L27400 30370
L27420 30340
L27440 30320
L27490 30300
L27520 30300
L27560 30320
L27570 30330
" />
<path d="M27870 30570
L27860 30590
L27820 30600
L27790 30600
L27740 30590
L27720 30560
L27700 30530
L27690 30470
L27690 30430
L27700 30370
L27720 30340
L27740 30320
L27790 30300
L27820 30300
L27860 30320
L27870 30330
" />
</g>
<g style="fill:#000000; fill-opacity:0.0; 
stroke:#000000; stroke-width:0; stroke-opacity:1; 
stroke-linecap:round; stroke-linejoin:round;">
</g>
<g style="fill:#000000; fill-opacity:0.0; 
stroke:#000000; stroke-width:100; stroke-opacity:1; 
stroke-linecap:round; stroke-linejoin:round;">
<polyline fill="none;"
points="54000,52000
55000,52000
" /> 
</g>
<g style="fill:#000000; fill-opacity:0.0; 
stroke:#000000; stroke-width:60; stroke-opacity:1; 
stroke-linecap:round; stroke-linejoin:round;">
<polyline fill="none;"
points="54500,52000
54500,51500
" /> 
</g>
<g style="fill:#000000; fill-opacity:0.0; 
stroke:#000000; stroke-width:0; stroke-opacity:1; 
stroke-linecap:round; stroke-linejoin:round;">
</g>
<g style="fill:#000000; fill-opacity:0.0; 
stroke:#000000; stroke-width:100; stroke-opacity:1; 
stroke-linecap:round; stroke-linejoin:round;">
<polyline fill="none;"
points="47000,52000
48000,52000
" /> 
</g>
<g style="fill:#000000; fill-opacity:0.0; 
stroke:#000000; stroke-width:60; stroke-opacity:1; 
stroke-linecap:round; stroke-linejoin:round;">
<polyline fill="none;"
points="47500,52000
47500,51500
" /> 
</g>
<g style="fill:#000000; fill-opacity:0.0; 
stroke:#000000; stroke-width:0; stroke-opacity:1; 
stroke-linecap:round; stroke-linejoin:round;">
</g>
<g style="fill:#000000; fill-opacity:0.0; 
stroke:#000000; stroke-width:100; stroke-opacity:1; 
stroke-linecap:round; stroke-linejoin:round;">
<polyline fill="none;"
points="43000,52000
44000,52000
" /> 
</g>
<g style="fill:#000000; fill-opacity:0.0; 
stroke:#000000; stroke-width:60; stroke-opacity:1; 
stroke-linecap:round; stroke-linejoin:round;">
<polyline fill="none;"
points="43500,52000
43500,51500
" /> 
</g>
<g style="fill:#000000; fill-opacity:0.0; 
stroke:#000000; stroke-width:0; stroke-opacity:1; 
stroke-linecap:round; stroke-linejoin:round;">
</g>
<g style="fill:#000000; fill-opacity:0.0; 
stroke:#000000; stroke-width:100; stroke-opacity:1; 
stroke-linecap:round; stroke-linejoin:round;">
<polyline fill="none;"
points="31500,52000
32500,52000
" /> 
</g>
<g style="fill:#000000; fill-opacity:0.0; 
stroke:#000000; stroke-width:60; stroke-opacity:1; 
stroke-linecap:round; stroke-linejoin:round;">
<polyline fill="none;"
points="32000,52000
32000,51500
" /> 
</g>
<g style="fill:#000000; fill-opacity:0.0; 
stroke:#000000; stroke-width:0; stroke-opacity:1; 
stroke-linecap:round; stroke-linejoin:round;">
</g>
<g style="fill:#000000; fill-opacity:0.0; 
stroke:#000000; stroke-width:100; stroke-opacity:1; 
stroke-linecap:round; stroke-linejoin:round;">
<polyline fill="none;"
points="27000,52000
28000,52000
" /> 
</g>
<g style="fill:#000000; fill-opacity:0.0; 
stroke:#000000; stroke-width:60; stroke-opacity:1; 
stroke-linecap:round; stroke-linejoin:round;">
<polyline fill="none;"
points="27500,52000
27500,51500
" /> 
</g>
<g style="fill:#000000; fill-opacity:0.0; 
stroke:#000000; stroke-width:0; stroke-opacity:1; 
stroke-linecap:round; stroke-linejoin:round;">
</g>
<g style="fill:#000000; fill-opacity:0.0; 
stroke:#000000; stroke-width:100; stroke-opacity:1; 
stroke-linecap:round; stroke-linejoin:round;">
<path d="M51270 47010
L51730 47010
" />
<path d="M51500 47240
L51500 46790
" />
</g>
<g style="fill:#000000; fill-opacity:1.0; 
stroke:#000000; stroke-width:100; stroke-opacity:1; 
stroke-linecap:round; stroke-linejoin:round;">
<rect x="50000" y="48250" width="2000" height="250" rx="0" />
</g>
<g style="fill:#000000; fill-opacity:0.0; 
stroke:#000000; stroke-width:100; stroke-opacity:1; 
stroke-linecap:round; stroke-linejoin:round;">
<rect x="50000" y="47500" width="2000" height="250" rx="0" />
<polyline fill="none;"
points="50000,48250
52000,48250
" /> 
<polyline fill="none;"
points="50000,47750
52000,47750
" /> 
</g>
<g style="fill:#000000; fill-opacity:0.0; 
stroke:#000000; stroke-width:60; stroke-opacity:1; 
stroke-linecap:round; stroke-linejoin:round;">
<path d="M51000 48500
L51000 49500
" />
<path d="M51000 47500
L51000 46500
" />
<path d="M49990 49660
L49960 49680
L49870 49710
L49810 49710
L49730 49680
L49670 49630
L49640 49570
L49610 49460
L49610 49370
L49640 49260
L49670 49200
L49730 49140
L49810 49110
L49870 49110
L49960 49140
L49990 49170
" />
<path d="M50190 49110
L50560 49110
L50360 49340
L50440 49340
L50500 49370
L50530 49400
L50560 49460
L50560 49600
L50530 49660
L50500 49680
L50440 49710
L50270 49710
L50210 49680
L50190 49660
" />
<path d="M43500 38000
L43500 45000
" />
</g>
<g style="fill:#000000; fill-opacity:0.0; 
stroke:#000000; stroke-width:0; stroke-opacity:1; 
stroke-linecap:round; stroke-linejoin:round;">
</g>
<g style="fill:#000000; fill-opacity:1.0; 
stroke:#000000; stroke-width:100; stroke-opacity:1; 
stroke-linecap:round; stroke-linejoin:round;">
<circle cx="43500" cy="41500" r="160" /> 
</g>
<g style="fill:#000000; fill-opacity:1.0; 
stroke:#000000; stroke-width:60; stroke-opacity:1; 
stroke-linecap:round; stroke-linejoin:round;">
<path d="M47500 45000
L47500 44000
" />
<path d="M47500 39000
L47500 38000
" />
<path d="M47500 38500
L49500 38500
" />
</g>
<g style="fill:#000000; fill-opacity:1.0; 
stroke:#000000; stroke-width:0; stroke-opacity:1; 
stroke-linecap:round; stroke-linejoin:round;">
</g>
<g style="fill:#000000; fill-opacity:1.0; 
stroke:#000000; stroke-width:100; stroke-opacity:1; 
stroke-linecap:round; stroke-linejoin:round;">
<circle cx="47500" cy="38500" r="160" /> 
</g>
<g style="fill:#000000; fill-opacity:1.0; 
stroke:#000000; stroke-width:60; stroke-opacity:1; 
stroke-linecap:round; stroke-linejoin:round;">
<path d="M27500 31500
L27500 38500
" />
<path d="M43500 32000
L43500 31500
" />
<path d="M47500 32000
L47500 31500
" />
<path d="M54500 38500
L54500 45000
" />
<path d="M54500 51000
L54500 51500
" />
<path d="M47500 51000
L47500 51500
" />
<path d="M27500 51500
L27500 44500
" />
<path d="M32000 51000
L32000 51500
" />
<path d="M43500 51000
L43500 51500
" />
<path d="M51000 46500
L51000 44500
" />
<path d="M48000 44500
L48500 44250
" />
<path d="M48000 44500
L48500 44750
" />
<path d="M51000 49500
L51000 51250
" />
<path d="M48000 51250
L48500 51000
" />
<path d="M48000 51250
L48500 51500
" />
<path d="M48000 51250
L48750 51250
" />
<path d="M51000 51250
L50500 51250
" />
<path d="M50250 51250
L49750 51250
" />
<path d="M49500 51250
L49000 51250
" />
<path d="M51000 44500
L50500 44500
" />
<path d="M50250 44500
L49750 44500
" />
<path d="M49500 44500
L49000 44500
" />
<path d="M48750 44500
L48000 44500
" />
<path d="M52500 38500
L54500 38500
" />
</g>
<g style="fill:#000000; fill-opacity:1.0; 
stroke:#000000; stroke-width:0; stroke-opacity:1; 
stroke-linecap:round; stroke-linejoin:round;">
</g>
<g style="fill:#000000; fill-opacity:0.0; 
stroke:#000000; stroke-width:60; stroke-opacity:1; 
stroke-linecap:round; stroke-linejoin:round;">
<rect x="34000" y="41000" width="3000" height="1000" rx="0" />
<polyline fill="none;"
points="34000,43000
37000,40000
" /> 
</g>
<g style="fill:#000000; fill-opacity:1.0; 
stroke:#000000; stroke-width:60; stroke-opacity:1; 
stroke-linecap:round; stroke-linejoin:round;">
<polyline style="fill-rule:evenodd;"
points="36600,40000
37000,40000
37000,40400
36600,40000
" /> 
<path d="M34000 43000
L34000 43000
" />
</g>
<g style="fill:#000000; fill-opacity:0.0; 
stroke:#000000; stroke-width:60; stroke-opacity:1; 
stroke-linecap:round; stroke-linejoin:round;">
<path d="M34000 41500
L32500 41500
" />
<path d="M37000 41500
L38500 41500
" />
<path d="M36490 43270
L36290 42990
" />
<path d="M36140 43270
L36140 42670
L36370 42670
L36430 42700
L36460 42730
L36490 42790
L36490 42870
L36460 42930
L36430 42960
L36370 42990
L36140 42990
" />
<path d="M37030 42670
L36740 42670
L36710 42960
L36740 42930
L36800 42900
L36940 42900
L37000 42930
L37030 42960
L37060 43020
L37060 43160
L37030 43220
L37000 43240
L36940 43270
L36800 43270
L36740 43240
L36710 43220
" />
<path d="M32500 41500
L32000 41500
" />
<path d="M32000 41500
L32000 45000
" />
<path d="M34000 43000
L32000 43000
" />
</g>
<g style="fill:#000000; fill-opacity:0.0; 
stroke:#000000; stroke-width:0; stroke-opacity:1; 
stroke-linecap:round; stroke-linejoin:round;">
</g>
<g style="fill:#000000; fill-opacity:1.0; 
stroke:#000000; stroke-width:100; stroke-opacity:1; 
stroke-linecap:round; stroke-linejoin:round;">
<circle cx="32000" cy="43000" r="160" /> 
</g>
<g style="fill:#000000; fill-opacity:1.0; 
stroke:#000000; stroke-width:60; stroke-opacity:1; 
stroke-linecap:round; stroke-linejoin:round;">
<path d="M38500 41500
L39000 41500
" />
<path d="M42000 41500
L44000 41500
" />
</g> 
</svg>
