<?xml version="1.0" standalone="no"?>
 <!DOCTYPE svg PUBLIC "-//W3C//DTD SVG 1.1//EN" 
 "http://www.w3.org/Graphics/SVG/1.1/DTD/svg11.dtd"> 
<svg xmlns="http://www.w3.org/2000/svg" version="1.1" 
    width="29.7002cm" height="21.0007cm" viewBox="0 0 116929 82679 ">
<title>SVG Picture created as $sch1.svg date 2014/10/19 22:43:34 </title>
  <desc>Picture generated by Eeschema-SVG </desc>
<g style="fill:#000000; fill-opacity:1;stroke:#000000; stroke-opacity:1;
stroke-linecap:round; stroke-linejoin:round; "
 transform="translate(0 0) scale(1 1)">
</g>
<g style="fill:#000000; fill-opacity:0.0; 
stroke:#000000; stroke-width:0; stroke-opacity:1; 
stroke-linecap:round; stroke-linejoin:round;">
</g>
<g style="fill:#000000; fill-opacity:0.0; 
stroke:#000000; stroke-width:100; stroke-opacity:1; 
stroke-linecap:round; stroke-linejoin:round;">
<rect x="46000" y="35500" width="3000" height="3000" rx="0" />
</g>
<g style="fill:#000000; fill-opacity:0.0; 
stroke:#000000; stroke-width:60; stroke-opacity:1; 
stroke-linecap:round; stroke-linejoin:round;">
<path d="M47080 36670
L47020 36640
L46930 36640
L46850 36670
L46790 36730
L46760 36790
L46730 36900
L46730 36990
L46760 37100
L46790 37160
L46850 37210
L46930 37240
L46990 37240
L47080 37210
L47110 37190
L47110 36990
L46990 36990
" />
<path d="M47360 36930
L47560 36930
" />
<path d="M47650 37240
L47360 37240
L47360 36640
L47650 36640
" />
<path d="M47900 37240
L47900 36640
L48250 37240
L48250 36640
" />
</g>
<g style="fill:#000000; fill-opacity:0.0; 
stroke:#000000; stroke-width:100; stroke-opacity:1; 
stroke-linecap:round; stroke-linejoin:round;">
<rect x="49000" y="36500" width="500" height="1000" rx="0" />
</g>
<g style="fill:#000000; fill-opacity:0.0; 
stroke:#000000; stroke-width:60; stroke-opacity:1; 
stroke-linecap:round; stroke-linejoin:round;">
<path d="M49500 37000
L50500 37000
" />
</g>
<g style="fill:#000000; fill-opacity:0.0; 
stroke:#000000; stroke-width:0; stroke-opacity:1; 
stroke-linecap:round; stroke-linejoin:round;">
</g>
<g style="fill:#000000; fill-opacity:0.0; 
stroke:#000000; stroke-width:100; stroke-opacity:1; 
stroke-linecap:round; stroke-linejoin:round;">
<rect x="58000" y="35500" width="3000" height="3000" rx="0" />
</g>
<g style="fill:#000000; fill-opacity:0.0; 
stroke:#000000; stroke-width:60; stroke-opacity:1; 
stroke-linecap:round; stroke-linejoin:round;">
<path d="M58840 37240
L58840 36640
L58990 36640
L59070 36670
L59130 36730
L59160 36790
L59190 36900
L59190 36990
L59160 37100
L59130 37160
L59070 37210
L58990 37240
L58840 37240
" />
<path d="M59440 36930
L59640 36930
" />
<path d="M59730 37240
L59440 37240
L59440 36640
L59730 36640
" />
<path d="M59900 36640
L60240 36640
" />
<path d="M60070 37240
L60070 36640
" />
</g>
<g style="fill:#000000; fill-opacity:0.0; 
stroke:#000000; stroke-width:100; stroke-opacity:1; 
stroke-linecap:round; stroke-linejoin:round;">
<rect x="57500" y="36500" width="500" height="1000" rx="0" />
</g>
<g style="fill:#000000; fill-opacity:0.0; 
stroke:#000000; stroke-width:60; stroke-opacity:1; 
stroke-linecap:round; stroke-linejoin:round;">
<path d="M57500 37000
L56500 37000
" />
</g>
<g style="fill:#000000; fill-opacity:0.0; 
stroke:#000000; stroke-width:0; stroke-opacity:1; 
stroke-linecap:round; stroke-linejoin:round;">
</g>
<g style="fill:#000000; fill-opacity:0.0; 
stroke:#000000; stroke-width:60; stroke-opacity:1; 
stroke-linecap:round; stroke-linejoin:round;">
<path d="M53300 36740
L53300 36140
L53500 36570
L53700 36140
L53700 36740
" />
<path d="M53500 37000
L50500 37000
" />
<path d="M53500 37000
L56500 37000
" />
</g> 
</svg>
