<?xml version="1.0" standalone="no"?>
 <!DOCTYPE svg PUBLIC "-//W3C//DTD SVG 1.1//EN" 
 "http://www.w3.org/Graphics/SVG/1.1/DTD/svg11.dtd"> 
<svg xmlns="http://www.w3.org/2000/svg" version="1.1" 
    width="29.7002cm" height="21.0007cm" viewBox="0 0 116929 82679 ">
<title>SVG Picture created as $sch1.svg date 2014/10/19 22:57:21 </title>
  <desc>Picture generated by Eeschema-SVG </desc>
<g style="fill:#000000; fill-opacity:1;stroke:#000000; stroke-opacity:1;
stroke-linecap:round; stroke-linejoin:round; "
 transform="translate(0 0) scale(1 1)">
</g>
<g style="fill:#000000; fill-opacity:0.0; 
stroke:#000000; stroke-width:0; stroke-opacity:1; 
stroke-linecap:round; stroke-linejoin:round;">
</g>
<g style="fill:#000000; fill-opacity:0.0; 
stroke:#000000; stroke-width:100; stroke-opacity:1; 
stroke-linecap:round; stroke-linejoin:round;">
<rect x="35000" y="39000" width="3000" height="3000" rx="0" />
</g>
<g style="fill:#000000; fill-opacity:0.0; 
stroke:#000000; stroke-width:60; stroke-opacity:1; 
stroke-linecap:round; stroke-linejoin:round;">
<path d="M36080 40170
L36020 40140
L35930 40140
L35850 40170
L35790 40230
L35760 40290
L35730 40400
L35730 40490
L35760 40600
L35790 40660
L35850 40710
L35930 40740
L35990 40740
L36080 40710
L36110 40690
L36110 40490
L35990 40490
" />
<path d="M36360 40430
L36560 40430
" />
<path d="M36650 40740
L36360 40740
L36360 40140
L36650 40140
" />
<path d="M36900 40740
L36900 40140
L37250 40740
L37250 40140
" />
</g>
<g style="fill:#000000; fill-opacity:0.0; 
stroke:#000000; stroke-width:100; stroke-opacity:1; 
stroke-linecap:round; stroke-linejoin:round;">
<rect x="38000" y="40000" width="500" height="1000" rx="0" />
</g>
<g style="fill:#000000; fill-opacity:0.0; 
stroke:#000000; stroke-width:60; stroke-opacity:1; 
stroke-linecap:round; stroke-linejoin:round;">
<path d="M38500 40500
L39500 40500
" />
</g>
<g style="fill:#000000; fill-opacity:0.0; 
stroke:#000000; stroke-width:0; stroke-opacity:1; 
stroke-linecap:round; stroke-linejoin:round;">
</g>
<g style="fill:#000000; fill-opacity:0.0; 
stroke:#000000; stroke-width:60; stroke-opacity:1; 
stroke-linecap:round; stroke-linejoin:round;">
<path d="M51330 39640
L51670 39640
" />
<path d="M51500 40240
L51500 39640
" />
<path d="M49500 42500.3 A1070 1070 0.0 0 0 50253 42502.9 " />
<path d="M52750 42500.3 A1070 1070 0.0 0 0 53503 42502.9 " />
<path d="M50250.9 42495.4 A2260 2260 0.0 0 0 51245 40996.3 " />
<path d="M48497.8 41001.3 A1890 1890 0.0 0 0 49501.4 42503.4 " />
<path d="M50500.3 40498.4 A440 440 0.0 0 0 50251.5 40999.7 " />
<path d="M51247.7 40999 A530 530 0.0 0 0 51000.9 40500.5 " />
<path d="M51001.6 40499.7 A560 560 0.0 0 0 50501 40498.4 " />
<path d="M51750.8 42504.6 A2020 2020 0.0 0 0 52754.1 41003.2 " />
<path d="M51250.1 42501.2 A560 560 0.0 0 0 51750.7 42500.7 " />
<path d="M52000.3 40498.4 A440 440 0.0 0 0 51751.5 40999.7 " />
<path d="M52747.7 40999 A530 530 0.0 0 0 52500.9 40500.5 " />
<path d="M52501.6 40499.7 A560 560 0.0 0 0 52001 40498.4 " />
<path d="M50245.9 41003.2 A2020 2020 0.0 0 0 51249.2 42504.6 " />
<path d="M53498.6 42503.4 A1890 1890 0.0 0 0 54502.2 41001.3 " />
<path d="M51755 40996.3 A2260 2260 0.0 0 0 52749.1 42495.4 " />
<path d="M48500 41000
L48500 40500
" />
<path d="M54500 41000
L54500 40500
" />
</g>
<g style="fill:#000000; fill-opacity:0.0; 
stroke:#000000; stroke-width:0; stroke-opacity:1; 
stroke-linecap:round; stroke-linejoin:round;">
</g>
<g style="fill:#000000; fill-opacity:0.0; 
stroke:#000000; stroke-width:100; stroke-opacity:1; 
stroke-linecap:round; stroke-linejoin:round;">
<rect x="65000" y="39000" width="3000" height="3000" rx="0" />
</g>
<g style="fill:#000000; fill-opacity:0.0; 
stroke:#000000; stroke-width:60; stroke-opacity:1; 
stroke-linecap:round; stroke-linejoin:round;">
<path d="M65840 40740
L65840 40140
L65990 40140
L66070 40170
L66130 40230
L66160 40290
L66190 40400
L66190 40490
L66160 40600
L66130 40660
L66070 40710
L65990 40740
L65840 40740
" />
<path d="M66440 40430
L66640 40430
" />
<path d="M66730 40740
L66440 40740
L66440 40140
L66730 40140
" />
<path d="M66900 40140
L67240 40140
" />
<path d="M67070 40740
L67070 40140
" />
</g>
<g style="fill:#000000; fill-opacity:0.0; 
stroke:#000000; stroke-width:100; stroke-opacity:1; 
stroke-linecap:round; stroke-linejoin:round;">
<rect x="64500" y="40000" width="500" height="1000" rx="0" />
</g>
<g style="fill:#000000; fill-opacity:0.0; 
stroke:#000000; stroke-width:60; stroke-opacity:1; 
stroke-linecap:round; stroke-linejoin:round;">
<path d="M64500 40500
L63500 40500
" />
</g>
<g style="fill:#000000; fill-opacity:0.0; 
stroke:#000000; stroke-width:0; stroke-opacity:1; 
stroke-linecap:round; stroke-linejoin:round;">
</g>
<g style="fill:#000000; fill-opacity:0.0; 
stroke:#000000; stroke-width:60; stroke-opacity:1; 
stroke-linecap:round; stroke-linejoin:round;">
<path d="M46840 40740
L46840 40140
" />
<path d="M47190 40740
L46930 40400
" />
<path d="M47190 40140
L46840 40490
" />
</g>
<g style="fill:#000000; fill-opacity:0.0; 
stroke:#000000; stroke-width:100; stroke-opacity:1; 
stroke-linecap:round; stroke-linejoin:round;">
<rect x="46500" y="40000" width="1000" height="1000" rx="0" />
</g>
<g style="fill:#000000; fill-opacity:0.0; 
stroke:#000000; stroke-width:60; stroke-opacity:1; 
stroke-linecap:round; stroke-linejoin:round;">
<path d="M46500 40500
L45500 40500
" />
<path d="M47500 40500
L48500 40500
" />
</g>
<g style="fill:#000000; fill-opacity:0.0; 
stroke:#000000; stroke-width:0; stroke-opacity:1; 
stroke-linecap:round; stroke-linejoin:round;">
</g>
<g style="fill:#000000; fill-opacity:0.0; 
stroke:#000000; stroke-width:60; stroke-opacity:1; 
stroke-linecap:round; stroke-linejoin:round;">
<path d="M55840 40740
L55840 40140
" />
<path d="M56190 40740
L55930 40400
" />
<path d="M56190 40140
L55840 40490
" />
</g>
<g style="fill:#000000; fill-opacity:0.0; 
stroke:#000000; stroke-width:100; stroke-opacity:1; 
stroke-linecap:round; stroke-linejoin:round;">
<rect x="55500" y="40000" width="1000" height="1000" rx="0" />
</g>
<g style="fill:#000000; fill-opacity:0.0; 
stroke:#000000; stroke-width:60; stroke-opacity:1; 
stroke-linecap:round; stroke-linejoin:round;">
<path d="M55500 40500
L54500 40500
" />
<path d="M56500 40500
L57500 40500
" />
</g>
<g style="fill:#000000; fill-opacity:0.0; 
stroke:#000000; stroke-width:0; stroke-opacity:1; 
stroke-linecap:round; stroke-linejoin:round;">
</g>
<g style="fill:#000000; fill-opacity:0.0; 
stroke:#000000; stroke-width:60; stroke-opacity:1; 
stroke-linecap:round; stroke-linejoin:round;">
<path d="M42300 40240
L42300 39640
L42500 40070
L42700 39640
L42700 40240
" />
<path d="M42500 40500
L39500 40500
" />
<path d="M42500 40500
L45500 40500
" />
</g>
<g style="fill:#000000; fill-opacity:0.0; 
stroke:#000000; stroke-width:0; stroke-opacity:1; 
stroke-linecap:round; stroke-linejoin:round;">
</g>
<g style="fill:#000000; fill-opacity:0.0; 
stroke:#000000; stroke-width:60; stroke-opacity:1; 
stroke-linecap:round; stroke-linejoin:round;">
<path d="M60300 40240
L60300 39640
L60500 40070
L60700 39640
L60700 40240
" />
<path d="M60500 40500
L57500 40500
" />
<path d="M60500 40500
L63500 40500
" />
</g> 
</svg>
