<?xml version="1.0" standalone="no"?>
 <!DOCTYPE svg PUBLIC "-//W3C//DTD SVG 1.1//EN" 
 "http://www.w3.org/Graphics/SVG/1.1/DTD/svg11.dtd"> 
<svg xmlns="http://www.w3.org/2000/svg" version="1.1" 
    width="29.7002cm" height="21.0007cm" viewBox="0 0 116929 82679 ">
<title>SVG Picture created as NINZ.svg date 2014/10/07 21:32:34 </title>
  <desc>Picture generated by Eeschema-SVG </desc>
<g style="fill:#000000; fill-opacity:1;stroke:#000000; stroke-opacity:1;
stroke-linecap:round; stroke-linejoin:round; "
 transform="translate(0 0) scale(1 1)">
</g>
<g style="fill:#000000; fill-opacity:0.0; 
stroke:#000000; stroke-width:0; stroke-opacity:1; 
stroke-linecap:round; stroke-linejoin:round;">
</g>
<g style="fill:#000000; fill-opacity:0.0; 
stroke:#000000; stroke-width:60; stroke-opacity:1; 
stroke-linecap:round; stroke-linejoin:round;">
<path d="M30810 38640
L31210 38640
L30810 39240
L31210 39240
" />
</g>
<g style="fill:#000000; fill-opacity:0.0; 
stroke:#000000; stroke-width:100; stroke-opacity:1; 
stroke-linecap:round; stroke-linejoin:round;">
<polyline fill="none;"
points="30500,40250
31500,40250
" /> 
<polyline fill="none;"
points="30500,40000
31500,40000
" /> 
<rect x="29500" y="38000" width="3000" height="3000" rx="0" />
</g>
<g style="fill:#000000; fill-opacity:0.0; 
stroke:#000000; stroke-width:60; stroke-opacity:1; 
stroke-linecap:round; stroke-linejoin:round;">
<path d="M31000 38000
L31000 36500
" />
<path d="M30660 37440
L30660 37060
" />
<path d="M30850 37250
L30470 37250
" />
<path d="M32500 39500
L34000 39500
" />
<path d="M32870 38880
L32820 38850
L32750 38850
L32680 38880
L32630 38920
L32610 38970
L32590 39070
L32590 39140
L32610 39230
L32630 39280
L32680 39330
L32750 39350
L32800 39350
L32870 39330
L32890 39300
L32890 39140
L32800 39140
" />
<path d="M33110 39350
L33110 38850
L33390 39350
L33390 38850
" />
<path d="M33630 39350
L33630 38850
L33750 38850
L33820 38880
L33870 38920
L33890 38970
L33910 39070
L33910 39140
L33890 39230
L33870 39280
L33820 39330
L33750 39350
L33630 39350
" />
<path d="M31000 41000
L31000 42500
" />
<path d="M30850 41750
L30350 41750
" />
<path d="M31590 41610
L31990 41610
L31590 42210
L31990 42210
" />
<path d="M32530 42210
L32180 42210
" />
<path d="M32360 42210
L32360 41610
L32300 41700
L32240 41760
L32180 41780
" />
</g>
<g style="fill:#000000; fill-opacity:0.0; 
stroke:#000000; stroke-width:0; stroke-opacity:1; 
stroke-linecap:round; stroke-linejoin:round;">
</g>
<g style="fill:#000000; fill-opacity:0.0; 
stroke:#000000; stroke-width:100; stroke-opacity:1; 
stroke-linecap:round; stroke-linejoin:round;">
<polyline fill="none;"
points="34000,54000
35000,54000
" /> 
</g>
<g style="fill:#000000; fill-opacity:0.0; 
stroke:#000000; stroke-width:60; stroke-opacity:1; 
stroke-linecap:round; stroke-linejoin:round;">
<polyline fill="none;"
points="34500,54000
34500,53500
" /> 
</g>
<g style="fill:#000000; fill-opacity:0.0; 
stroke:#000000; stroke-width:0; stroke-opacity:1; 
stroke-linecap:round; stroke-linejoin:round;">
</g>
<g style="fill:#000000; fill-opacity:0.0; 
stroke:#000000; stroke-width:60; stroke-opacity:1; 
stroke-linecap:round; stroke-linejoin:round;">
<polyline fill="none;"
points="31000,44000
31000,44500
31000,44500
" /> 
</g>
<g style="fill:#000000; fill-opacity:1.0; 
stroke:#000000; stroke-width:60; stroke-opacity:1; 
stroke-linecap:round; stroke-linejoin:round;">
<polyline style="fill-rule:evenodd;"
points="31000,44800
30700,44500
31200,44500
31300,44500
31000,44800
31000,44800
31000,44800
" /> 
</g>
<g style="fill:#000000; fill-opacity:0.0; 
stroke:#000000; stroke-width:50; stroke-opacity:1; 
stroke-linecap:round; stroke-linejoin:round;">
<path d="M30460 45030
L30690 45030
" />
<path d="M30990 45140
L30820 45140
" />
<path d="M30900 45140
L30900 44840
L30870 44880
L30850 44910
L30820 44930
" />
<path d="M31110 44870
L31120 44860
L31150 44840
L31220 44840
L31250 44860
L31260 44870
L31280 44900
L31280 44930
L31260 44970
L31090 45140
L31280 45140
" />
<path d="M31370 44840
L31470 45140
L31570 44840
" />
</g>
<g style="fill:#000000; fill-opacity:0.0; 
stroke:#000000; stroke-width:0; stroke-opacity:1; 
stroke-linecap:round; stroke-linejoin:round;">
</g>
<g style="fill:#000000; fill-opacity:0.0; 
stroke:#000000; stroke-width:60; stroke-opacity:1; 
stroke-linecap:round; stroke-linejoin:round;">
<circle cx="31000" cy="34400" r="200" /> 
<polyline fill="none;"
points="31000,35000
31000,34600
31000,34600
" /> 
</g>
<g style="fill:#000000; fill-opacity:0.0; 
stroke:#000000; stroke-width:50; stroke-opacity:1; 
stroke-linecap:round; stroke-linejoin:round;">
<path d="M30470 33990
L30700 33990
" />
<path d="M30590 34100
L30590 33870
" />
<path d="M31000 34100
L30830 34100
" />
<path d="M30910 34100
L30910 33800
L30880 33840
L30860 33870
L30830 33890
" />
<path d="M31120 33830
L31130 33820
L31160 33800
L31230 33800
L31260 33820
L31270 33830
L31290 33860
L31290 33890
L31270 33930
L31100 34100
L31290 34100
" />
<path d="M31380 33800
L31480 34100
L31580 33800
" />
</g>
<g style="fill:#000000; fill-opacity:0.0; 
stroke:#000000; stroke-width:0; stroke-opacity:1; 
stroke-linecap:round; stroke-linejoin:round;">
</g>
<g style="fill:#000000; fill-opacity:0.0; 
stroke:#000000; stroke-width:60; stroke-opacity:1; 
stroke-linecap:round; stroke-linejoin:round;">
<circle cx="51000" cy="34400" r="200" /> 
<polyline fill="none;"
points="51000,35000
51000,34600
51000,34600
" /> 
</g>
<g style="fill:#000000; fill-opacity:0.0; 
stroke:#000000; stroke-width:50; stroke-opacity:1; 
stroke-linecap:round; stroke-linejoin:round;">
<path d="M50470 33990
L50700 33990
" />
<path d="M50590 34100
L50590 33870
" />
<path d="M51000 34100
L50830 34100
" />
<path d="M50910 34100
L50910 33800
L50880 33840
L50860 33870
L50830 33890
" />
<path d="M51120 33830
L51130 33820
L51160 33800
L51230 33800
L51260 33820
L51270 33830
L51290 33860
L51290 33890
L51270 33930
L51100 34100
L51290 34100
" />
<path d="M51380 33800
L51480 34100
L51580 33800
" />
</g>
<g style="fill:#000000; fill-opacity:0.0; 
stroke:#000000; stroke-width:0; stroke-opacity:1; 
stroke-linecap:round; stroke-linejoin:round;">
</g>
<g style="fill:#000000; fill-opacity:0.0; 
stroke:#000000; stroke-width:60; stroke-opacity:1; 
stroke-linecap:round; stroke-linejoin:round;">
<polyline fill="none;"
points="51000,44000
51000,44500
51000,44500
" /> 
</g>
<g style="fill:#000000; fill-opacity:1.0; 
stroke:#000000; stroke-width:60; stroke-opacity:1; 
stroke-linecap:round; stroke-linejoin:round;">
<polyline style="fill-rule:evenodd;"
points="51000,44800
50700,44500
51200,44500
51300,44500
51000,44800
51000,44800
51000,44800
" /> 
</g>
<g style="fill:#000000; fill-opacity:0.0; 
stroke:#000000; stroke-width:50; stroke-opacity:1; 
stroke-linecap:round; stroke-linejoin:round;">
<path d="M50460 45030
L50690 45030
" />
<path d="M50990 45140
L50820 45140
" />
<path d="M50900 45140
L50900 44840
L50870 44880
L50850 44910
L50820 44930
" />
<path d="M51110 44870
L51120 44860
L51150 44840
L51220 44840
L51250 44860
L51260 44870
L51280 44900
L51280 44930
L51260 44970
L51090 45140
L51280 45140
" />
<path d="M51370 44840
L51470 45140
L51570 44840
" />
</g>
<g style="fill:#000000; fill-opacity:0.0; 
stroke:#000000; stroke-width:0; stroke-opacity:1; 
stroke-linecap:round; stroke-linejoin:round;">
</g>
<g style="fill:#000000; fill-opacity:0.0; 
stroke:#000000; stroke-width:100; stroke-opacity:1; 
stroke-linecap:round; stroke-linejoin:round;">
<polyline fill="none;"
points="62000,54000
63000,54000
" /> 
</g>
<g style="fill:#000000; fill-opacity:0.0; 
stroke:#000000; stroke-width:60; stroke-opacity:1; 
stroke-linecap:round; stroke-linejoin:round;">
<polyline fill="none;"
points="62500,54000
62500,53500
" /> 
</g>
<g style="fill:#000000; fill-opacity:0.0; 
stroke:#000000; stroke-width:0; stroke-opacity:1; 
stroke-linecap:round; stroke-linejoin:round;">
</g>
<g style="fill:#000000; fill-opacity:0.0; 
stroke:#000000; stroke-width:100; stroke-opacity:1; 
stroke-linecap:round; stroke-linejoin:round;">
<rect x="72000" y="37000" width="7000" height="5000" rx="0" />
</g>
<g style="fill:#000000; fill-opacity:0.0; 
stroke:#000000; stroke-width:60; stroke-opacity:1; 
stroke-linecap:round; stroke-linejoin:round;">
<path d="M72000 37500
L70500 37500
" />
<path d="M72500 37560
L72730 37560
" />
<path d="M72450 37700
L72610 37200
L72780 37700
" />
<path d="M72000 39500
L70500 39500
" />
<path d="M72690 39440
L72760 39460
L72780 39490
L72800 39540
L72800 39610
L72780 39650
L72760 39680
L72710 39700
L72520 39700
L72520 39200
L72690 39200
L72730 39230
L72760 39250
L72780 39300
L72780 39350
L72760 39390
L72730 39420
L72690 39440
L72520 39440
" />
<path d="M72000 41500
L70500 41500
" />
<path d="M72780 41230
L72730 41200
L72660 41200
L72590 41230
L72540 41270
L72520 41320
L72500 41420
L72500 41490
L72520 41580
L72540 41630
L72590 41680
L72660 41700
L72710 41700
L72780 41680
L72800 41650
L72800 41490
L72710 41490
" />
<path d="M73020 41700
L73020 41200
L73300 41700
L73300 41200
" />
<path d="M73540 41700
L73540 41200
L73660 41200
L73730 41230
L73780 41270
L73800 41320
L73820 41420
L73820 41490
L73800 41580
L73780 41630
L73730 41680
L73660 41700
L73540 41700
" />
<path d="M76890 42610
L77000 42610
L77060 42640
L77120 42700
L77140 42810
L77140 43010
L77120 43130
L77060 43180
L77000 43210
L76890 43210
L76830 43180
L76770 43130
L76740 43010
L76740 42810
L76770 42700
L76830 42640
L76890 42610
" />
<path d="M77370 43180
L77460 43210
L77600 43210
L77660 43180
L77690 43160
L77720 43100
L77720 43040
L77690 42980
L77660 42960
L77600 42930
L77490 42900
L77430 42870
L77400 42840
L77370 42780
L77370 42730
L77400 42670
L77430 42640
L77490 42610
L77630 42610
L77720 42640
" />
<path d="M78320 43160
L78290 43180
L78200 43210
L78140 43210
L78060 43180
L78000 43130
L77970 43070
L77940 42960
L77940 42870
L77970 42760
L78000 42700
L78060 42640
L78140 42610
L78200 42610
L78290 42640
L78320 42670
" />
<path d="M78890 43210
L78540 43210
" />
<path d="M78720 43210
L78720 42610
L78660 42700
L78600 42760
L78540 42780
" />
<path d="M74210 39110
L74320 39110
L74380 39140
L74440 39200
L74460 39310
L74460 39510
L74440 39630
L74380 39680
L74320 39710
L74210 39710
L74150 39680
L74090 39630
L74060 39510
L74060 39310
L74090 39200
L74150 39140
L74210 39110
" />
<path d="M74690 39680
L74780 39710
L74920 39710
L74980 39680
L75010 39660
L75040 39600
L75040 39540
L75010 39480
L74980 39460
L74920 39430
L74810 39400
L74750 39370
L74720 39340
L74690 39280
L74690 39230
L74720 39170
L74750 39140
L74810 39110
L74950 39110
L75040 39140
" />
<path d="M75640 39660
L75610 39680
L75520 39710
L75460 39710
L75380 39680
L75320 39630
L75290 39570
L75260 39460
L75260 39370
L75290 39260
L75320 39200
L75380 39140
L75460 39110
L75520 39110
L75610 39140
L75640 39170
" />
<path d="M75890 39480
L76350 39480
" />
<path d="M76600 39170
L76630 39140
L76690 39110
L76830 39110
L76890 39140
L76920 39170
L76950 39230
L76950 39280
L76920 39370
L76580 39710
L76950 39710
" />
</g>
<g style="fill:#000000; fill-opacity:0.0; 
stroke:#000000; stroke-width:0; stroke-opacity:1; 
stroke-linecap:round; stroke-linejoin:round;">
</g>
<g style="fill:#000000; fill-opacity:0.0; 
stroke:#000000; stroke-width:100; stroke-opacity:1; 
stroke-linecap:round; stroke-linejoin:round;">
<polyline fill="none;"
points="49000,41500
53000,39500
49000,37500
49000,41500
" /> 
</g>
<g style="fill:#000000; fill-opacity:0.0; 
stroke:#000000; stroke-width:60; stroke-opacity:1; 
stroke-linecap:round; stroke-linejoin:round;">
<path d="M49000 40500
L46000 40500
" />
<path d="M49520 40510
L49900 40510
" />
<path d="M47360 39900
L47380 39880
L47430 39850
L47550 39850
L47590 39880
L47620 39900
L47640 39950
L47640 40000
L47620 40070
L47330 40350
L47640 40350
" />
<path d="M49000 38500
L46000 38500
" />
<path d="M49520 38510
L49900 38510
" />
<path d="M49710 38700
L49710 38320
" />
<path d="M47330 37850
L47640 37850
L47470 38040
L47550 38040
L47590 38070
L47620 38090
L47640 38140
L47640 38260
L47620 38300
L47590 38330
L47550 38350
L47400 38350
L47360 38330
L47330 38300
" />
<path d="M51000 40500
L51000 43500
" />
<path d="M50520 41910
L50850 41910
" />
<path d="M50330 42030
L50690 42140
L50690 41840
" />
<path d="M53000 39500
L56000 39500
" />
<path d="M54590 38850
L54500 38850
L54450 38880
L54430 38900
L54380 38970
L54360 39070
L54360 39260
L54380 39300
L54400 39330
L54450 39350
L54550 39350
L54590 39330
L54620 39300
L54640 39260
L54640 39140
L54620 39090
L54590 39070
L54550 39040
L54450 39040
L54400 39070
L54380 39090
L54360 39140
" />
<path d="M51000 38500
L51000 35500
" />
<path d="M50350 37170
L50350 36840
L50850 37050
" />
<path d="M52140 40710
L52140 40110
" />
<path d="M52550 40110
L52660 40110
L52720 40140
L52780 40200
L52800 40310
L52800 40510
L52780 40630
L52720 40680
L52660 40710
L52550 40710
L52490 40680
L52430 40630
L52400 40510
L52400 40310
L52430 40200
L52490 40140
L52550 40110
" />
<path d="M53380 40710
L53030 40710
" />
<path d="M53210 40710
L53210 40110
L53150 40200
L53090 40260
L53030 40280
" />
<path d="M45430 41710
L45430 41110
L45630 41540
L45830 41110
L45830 41710
" />
<path d="M46090 41540
L46380 41540
" />
<path d="M46040 41710
L46240 41110
L46440 41710
" />
<path d="M46600 41540
L46890 41540
" />
<path d="M46550 41710
L46750 41110
L46950 41710
" />
<path d="M47090 41110
L47490 41110
L47230 41710
" />
<path d="M47970 41310
L47970 41710
" />
<path d="M47830 41080
L47680 41510
L48060 41510
" />
<path d="M48600 41710
L48250 41710
" />
<path d="M48430 41710
L48430 41110
L48370 41200
L48310 41260
L48250 41280
" />
</g>
<g style="fill:#000000; fill-opacity:0.0; 
stroke:#000000; stroke-width:0; stroke-opacity:1; 
stroke-linecap:round; stroke-linejoin:round;">
</g>
<g style="fill:#000000; fill-opacity:0.0; 
stroke:#000000; stroke-width:60; stroke-opacity:1; 
stroke-linecap:round; stroke-linejoin:round;">
<rect x="44500" y="48500" width="1000" height="3000" rx="0" />
<path d="M45000 51500
L45000 53000
" />
<path d="M45000 48500
L45000 47000
" />
<path d="M46490 49710
L46290 49430
" />
<path d="M46140 49710
L46140 49110
L46370 49110
L46430 49140
L46460 49170
L46490 49230
L46490 49310
L46460 49370
L46430 49400
L46370 49430
L46140 49430
" />
<path d="M47060 49710
L46710 49710
" />
<path d="M46890 49710
L46890 49110
L46830 49200
L46770 49260
L46710 49280
" />
</g>
<g style="fill:#000000; fill-opacity:0.0; 
stroke:#000000; stroke-width:0; stroke-opacity:1; 
stroke-linecap:round; stroke-linejoin:round;">
</g>
<g style="fill:#000000; fill-opacity:0.0; 
stroke:#000000; stroke-width:60; stroke-opacity:1; 
stroke-linecap:round; stroke-linejoin:round;">
<rect x="49500" y="46000" width="3000" height="1000" rx="0" />
<path d="M49500 46500
L48000 46500
" />
<path d="M52500 46500
L54000 46500
" />
<path d="M50990 48210
L50790 47930
" />
<path d="M50640 48210
L50640 47610
L50870 47610
L50930 47640
L50960 47670
L50990 47730
L50990 47810
L50960 47870
L50930 47900
L50870 47930
L50640 47930
" />
<path d="M51210 47670
L51240 47640
L51300 47610
L51440 47610
L51500 47640
L51530 47670
L51560 47730
L51560 47780
L51530 47870
L51190 48210
L51560 48210
" />
</g>
<g style="fill:#000000; fill-opacity:0.0; 
stroke:#000000; stroke-width:0; stroke-opacity:1; 
stroke-linecap:round; stroke-linejoin:round;">
</g>
<g style="fill:#000000; fill-opacity:0.0; 
stroke:#000000; stroke-width:100; stroke-opacity:1; 
stroke-linecap:round; stroke-linejoin:round;">
<polyline fill="none;"
points="44500,54000
45500,54000
" /> 
</g>
<g style="fill:#000000; fill-opacity:0.0; 
stroke:#000000; stroke-width:60; stroke-opacity:1; 
stroke-linecap:round; stroke-linejoin:round;">
<polyline fill="none;"
points="45000,54000
45000,53500
" /> 
</g>
<g style="fill:#000000; fill-opacity:0.0; 
stroke:#000000; stroke-width:0; stroke-opacity:1; 
stroke-linecap:round; stroke-linejoin:round;">
</g>
<g style="fill:#000000; fill-opacity:0.0; 
stroke:#000000; stroke-width:100; stroke-opacity:1; 
stroke-linecap:round; stroke-linejoin:round;">
<polyline fill="none;"
points="41500,54000
42500,54000
" /> 
</g>
<g style="fill:#000000; fill-opacity:0.0; 
stroke:#000000; stroke-width:60; stroke-opacity:1; 
stroke-linecap:round; stroke-linejoin:round;">
<polyline fill="none;"
points="42000,54000
42000,53500
" /> 
</g>
<g style="fill:#000000; fill-opacity:0.0; 
stroke:#000000; stroke-width:0; stroke-opacity:1; 
stroke-linecap:round; stroke-linejoin:round;">
</g>
<g style="fill:#000000; fill-opacity:0.0; 
stroke:#000000; stroke-width:100; stroke-opacity:1; 
stroke-linecap:round; stroke-linejoin:round;">
<polyline fill="none;"
points="37000,54000
38000,54000
" /> 
</g>
<g style="fill:#000000; fill-opacity:0.0; 
stroke:#000000; stroke-width:60; stroke-opacity:1; 
stroke-linecap:round; stroke-linejoin:round;">
<polyline fill="none;"
points="37500,54000
37500,53500
" /> 
</g>
<g style="fill:#000000; fill-opacity:0.0; 
stroke:#000000; stroke-width:0; stroke-opacity:1; 
stroke-linecap:round; stroke-linejoin:round;">
</g>
<g style="fill:#000000; fill-opacity:0.0; 
stroke:#000000; stroke-width:60; stroke-opacity:1; 
stroke-linecap:round; stroke-linejoin:round;">
<rect x="56000" y="48500" width="1000" height="3000" rx="0" />
<path d="M56500 51500
L56500 53000
" />
<path d="M56500 48500
L56500 47000
" />
<path d="M57990 49710
L57790 49430
" />
<path d="M57640 49710
L57640 49110
L57870 49110
L57930 49140
L57960 49170
L57990 49230
L57990 49310
L57960 49370
L57930 49400
L57870 49430
L57640 49430
" />
<path d="M58190 49110
L58560 49110
L58360 49340
L58440 49340
L58500 49370
L58530 49400
L58560 49460
L58560 49600
L58530 49660
L58500 49680
L58440 49710
L58270 49710
L58210 49680
L58190 49660
" />
</g>
<g style="fill:#000000; fill-opacity:0.0; 
stroke:#000000; stroke-width:0; stroke-opacity:1; 
stroke-linecap:round; stroke-linejoin:round;">
</g>
<g style="fill:#000000; fill-opacity:0.0; 
stroke:#000000; stroke-width:100; stroke-opacity:1; 
stroke-linecap:round; stroke-linejoin:round;">
<polyline fill="none;"
points="56000,54000
57000,54000
" /> 
</g>
<g style="fill:#000000; fill-opacity:0.0; 
stroke:#000000; stroke-width:60; stroke-opacity:1; 
stroke-linecap:round; stroke-linejoin:round;">
<polyline fill="none;"
points="56500,54000
56500,53500
" /> 
</g>
<g style="fill:#000000; fill-opacity:0.0; 
stroke:#000000; stroke-width:0; stroke-opacity:1; 
stroke-linecap:round; stroke-linejoin:round;">
</g>
<g style="fill:#000000; fill-opacity:0.0; 
stroke:#000000; stroke-width:100; stroke-opacity:1; 
stroke-linecap:round; stroke-linejoin:round;">
<polyline fill="none;"
points="59000,54000
60000,54000
" /> 
</g>
<g style="fill:#000000; fill-opacity:0.0; 
stroke:#000000; stroke-width:60; stroke-opacity:1; 
stroke-linecap:round; stroke-linejoin:round;">
<polyline fill="none;"
points="59500,54000
59500,53500
" /> 
</g>
<g style="fill:#000000; fill-opacity:0.0; 
stroke:#000000; stroke-width:0; stroke-opacity:1; 
stroke-linecap:round; stroke-linejoin:round;">
</g>
<g style="fill:#000000; fill-opacity:0.0; 
stroke:#000000; stroke-width:60; stroke-opacity:1; 
stroke-linecap:round; stroke-linejoin:round;">
<path d="M37290 44930
L37090 44930
" />
<path d="M37090 45240
L37090 44640
L37380 44640
" />
<path d="M37920 44670
L37860 44640
L37770 44640
L37690 44670
L37630 44730
L37600 44790
L37570 44900
L37570 44990
L37600 45100
L37630 45160
L37690 45210
L37770 45240
L37830 45240
L37920 45210
L37950 45190
L37950 44990
L37830 44990
" />
<polyline fill="none;"
points="35500,47000
36000,46500
" /> 
<polyline fill="none;"
points="39000,43500
39500,43000
" /> 
</g>
<g style="fill:#000000; fill-opacity:1.0; 
stroke:#000000; stroke-width:60; stroke-opacity:1; 
stroke-linecap:round; stroke-linejoin:round;">
<polyline style="fill-rule:evenodd;"
points="39500,43000
39500,43400
39100,43000
39500,43000
" /> 
</g>
<g style="fill:#000000; fill-opacity:0.0; 
stroke:#000000; stroke-width:100; stroke-opacity:1; 
stroke-linecap:round; stroke-linejoin:round;">
<rect x="36000" y="43500" width="3000" height="3000" rx="0" />
</g>
<g style="fill:#000000; fill-opacity:0.0; 
stroke:#000000; stroke-width:60; stroke-opacity:1; 
stroke-linecap:round; stroke-linejoin:round;">
<path d="M37500 46500
L37500 48000
" />
<path d="M37500 43500
L37500 42000
" />
<path d="M34000 39500
L34500 39500
" />
<path d="M34500 39500
L34500 53500
" />
<path d="M31000 35000
L31000 36500
" />
<path d="M31000 42500
L31000 44000
" />
<path d="M51000 43500
L51000 44000
" />
<path d="M51000 35500
L51000 35000
" />
<path d="M46000 40500
L45000 40500
" />
<path d="M45000 40500
L45000 47000
" />
<path d="M48000 46500
L45000 46500
" />
</g>
<g style="fill:#000000; fill-opacity:0.0; 
stroke:#000000; stroke-width:0; stroke-opacity:1; 
stroke-linecap:round; stroke-linejoin:round;">
</g>
<g style="fill:#000000; fill-opacity:1.0; 
stroke:#000000; stroke-width:100; stroke-opacity:1; 
stroke-linecap:round; stroke-linejoin:round;">
<circle cx="45000" cy="46500" r="160" /> 
</g>
<g style="fill:#000000; fill-opacity:1.0; 
stroke:#000000; stroke-width:60; stroke-opacity:1; 
stroke-linecap:round; stroke-linejoin:round;">
<path d="M54000 46500
L56500 46500
" />
<path d="M56500 39500
L56500 47000
" />
<path d="M45000 53000
L45000 53500
" />
<path d="M46000 38500
L37500 38500
" />
<path d="M37500 38500
L37500 42000
" />
<path d="M42000 33000
L42000 42000
" />
</g>
<g style="fill:#000000; fill-opacity:1.0; 
stroke:#000000; stroke-width:0; stroke-opacity:1; 
stroke-linecap:round; stroke-linejoin:round;">
</g>
<g style="fill:#000000; fill-opacity:1.0; 
stroke:#000000; stroke-width:100; stroke-opacity:1; 
stroke-linecap:round; stroke-linejoin:round;">
<circle cx="42000" cy="38500" r="160" /> 
</g>
<g style="fill:#000000; fill-opacity:1.0; 
stroke:#000000; stroke-width:60; stroke-opacity:1; 
stroke-linecap:round; stroke-linejoin:round;">
<path d="M37500 48000
L37500 53500
" />
<path d="M42000 48000
L42000 53500
" />
<path d="M56500 53000
L56500 53500
" />
</g>
<g style="fill:#000000; fill-opacity:1.0; 
stroke:#000000; stroke-width:0; stroke-opacity:1; 
stroke-linecap:round; stroke-linejoin:round;">
</g>
<g style="fill:#000000; fill-opacity:1.0; 
stroke:#000000; stroke-width:100; stroke-opacity:1; 
stroke-linecap:round; stroke-linejoin:round;">
<circle cx="56500" cy="46500" r="160" /> 
</g>
<g style="fill:#000000; fill-opacity:1.0; 
stroke:#000000; stroke-width:60; stroke-opacity:1; 
stroke-linecap:round; stroke-linejoin:round;">
<path d="M59500 39500
L59500 42000
" />
</g>
<g style="fill:#000000; fill-opacity:1.0; 
stroke:#000000; stroke-width:0; stroke-opacity:1; 
stroke-linecap:round; stroke-linejoin:round;">
</g>
<g style="fill:#000000; fill-opacity:1.0; 
stroke:#000000; stroke-width:100; stroke-opacity:1; 
stroke-linecap:round; stroke-linejoin:round;">
<circle cx="56500" cy="39500" r="160" /> 
</g>
<g style="fill:#000000; fill-opacity:1.0; 
stroke:#000000; stroke-width:60; stroke-opacity:1; 
stroke-linecap:round; stroke-linejoin:round;">
<path d="M59500 48000
L59500 53500
" />
<path d="M37500 37750
L37550 37650
" />
<path d="M37550 37650
L37650 37550
" />
<path d="M37650 37550
L37750 37500
" />
<path d="M37750 37500
L37850 37550
" />
<path d="M37850 37550
L37950 37650
" />
<path d="M37950 37650
L38050 37850
" />
<path d="M38500 37750
L38450 37850
" />
<path d="M38450 37850
L38350 37950
" />
<path d="M38350 37950
L38250 38000
" />
<path d="M38250 38000
L38150 37950
" />
<path d="M38150 37950
L38050 37850
" />
<path d="M38500 37750
L38550 37650
" />
<path d="M38550 37650
L38650 37550
" />
<path d="M38650 37550
L38750 37500
" />
<path d="M38750 37500
L38850 37550
" />
<path d="M38850 37550
L38950 37650
" />
<path d="M38950 37650
L39050 37850
" />
<path d="M39500 37750
L39450 37850
" />
<path d="M39450 37850
L39350 37950
" />
<path d="M39350 37950
L39250 38000
" />
<path d="M39250 38000
L39150 37950
" />
<path d="M39150 37950
L39050 37850
" />
</g>
<g style="fill:#000000; fill-opacity:1.0; 
stroke:#000000; stroke-width:0; stroke-opacity:1; 
stroke-linecap:round; stroke-linejoin:round;">
</g>
<g style="fill:#000000; fill-opacity:0.0; 
stroke:#000000; stroke-width:60; stroke-opacity:1; 
stroke-linecap:round; stroke-linejoin:round;">
<rect x="64500" y="44000" width="4500" height="2000" rx="0" />
<path d="M64500 44500
L63000 44500
" />
<path d="M65000 44560
L65230 44560
" />
<path d="M64950 44700
L65110 44200
L65280 44700
" />
<path d="M64500 45500
L63000 45500
" />
<path d="M65280 45230
L65230 45200
L65160 45200
L65090 45230
L65040 45270
L65020 45320
L65000 45420
L65000 45490
L65020 45580
L65040 45630
L65090 45680
L65160 45700
L65210 45700
L65280 45680
L65300 45650
L65300 45490
L65210 45490
" />
<path d="M65520 45700
L65520 45200
L65800 45700
L65800 45200
" />
<path d="M66040 45700
L66040 45200
L66160 45200
L66230 45230
L66280 45270
L66300 45320
L66320 45420
L66320 45490
L66300 45580
L66280 45630
L66230 45680
L66160 45700
L66040 45700
" />
<path d="M67730 46660
L67700 46680
L67610 46710
L67550 46710
L67470 46680
L67410 46630
L67380 46570
L67350 46460
L67350 46370
L67380 46260
L67410 46200
L67470 46140
L67550 46110
L67610 46110
L67700 46140
L67730 46170
" />
<path d="M67980 46710
L67980 46110
L68330 46710
L68330 46110
" />
<path d="M68530 46110
L68870 46110
" />
<path d="M68700 46710
L68700 46110
" />
<path d="M69390 46710
L69040 46710
" />
<path d="M69220 46710
L69220 46110
L69160 46200
L69100 46260
L69040 46280
" />
<path d="M67150 45160
L67120 45180
L67030 45210
L66970 45210
L66890 45180
L66830 45130
L66800 45070
L66770 44960
L66770 44870
L66800 44760
L66830 44700
L66890 44640
L66970 44610
L67030 44610
L67120 44640
L67150 44670
" />
<path d="M67400 45210
L67400 44610
L67750 45210
L67750 44610
" />
<path d="M67950 44610
L68290 44610
" />
<path d="M68120 45210
L68120 44610
" />
</g>
<g style="fill:#000000; fill-opacity:0.0; 
stroke:#000000; stroke-width:0; stroke-opacity:1; 
stroke-linecap:round; stroke-linejoin:round;">
</g>
<g style="fill:#000000; fill-opacity:1.0; 
stroke:#000000; stroke-width:100; stroke-opacity:1; 
stroke-linecap:round; stroke-linejoin:round;">
<circle cx="59500" cy="39500" r="160" /> 
</g>
<g style="fill:#000000; fill-opacity:1.0; 
stroke:#000000; stroke-width:60; stroke-opacity:1; 
stroke-linecap:round; stroke-linejoin:round;">
<path d="M63000 45500
L62500 45500
" />
<path d="M62500 45500
L62500 53500
" />
<path d="M63000 44500
L62500 44500
" />
<path d="M62500 44500
L62500 39500
" />
<path d="M56000 39500
L70500 39500
" />
<path d="M70500 41500
L70000 41500
" />
<path d="M70000 41500
L70000 53500
" />
</g>
<g style="fill:#000000; fill-opacity:1.0; 
stroke:#000000; stroke-width:0; stroke-opacity:1; 
stroke-linecap:round; stroke-linejoin:round;">
</g>
<g style="fill:#000000; fill-opacity:0.0; 
stroke:#000000; stroke-width:100; stroke-opacity:1; 
stroke-linecap:round; stroke-linejoin:round;">
<polyline fill="none;"
points="69500,54000
70500,54000
" /> 
</g>
<g style="fill:#000000; fill-opacity:0.0; 
stroke:#000000; stroke-width:60; stroke-opacity:1; 
stroke-linecap:round; stroke-linejoin:round;">
<polyline fill="none;"
points="70000,54000
70000,53500
" /> 
</g>
<g style="fill:#000000; fill-opacity:0.0; 
stroke:#000000; stroke-width:0; stroke-opacity:1; 
stroke-linecap:round; stroke-linejoin:round;">
</g>
<g style="fill:#000000; fill-opacity:1.0; 
stroke:#000000; stroke-width:100; stroke-opacity:1; 
stroke-linecap:round; stroke-linejoin:round;">
<circle cx="62500" cy="39500" r="160" /> 
</g>
<g style="fill:#000000; fill-opacity:1.0; 
stroke:#000000; stroke-width:60; stroke-opacity:1; 
stroke-linecap:round; stroke-linejoin:round;">
<path d="M70500 37500
L70000 37500
" />
<path d="M70000 37500
L70000 33000
" />
<path d="M70000 33000
L42000 33000
" />
</g>
<g style="fill:#000000; fill-opacity:1.0; 
stroke:#000000; stroke-width:0; stroke-opacity:1; 
stroke-linecap:round; stroke-linejoin:round;">
</g>
<g style="fill:#000000; fill-opacity:0.0; 
stroke:#000000; stroke-width:100; stroke-opacity:1; 
stroke-linecap:round; stroke-linejoin:round;">
<circle cx="42000" cy="45000" r="1500" /> 
</g>
<g style="fill:#000000; fill-opacity:0.0; 
stroke:#000000; stroke-width:60; stroke-opacity:1; 
stroke-linecap:round; stroke-linejoin:round;">
<path d="M41490 45240
L41490 44840
" />
<path d="M41490 44900
L41520 44870
L41580 44840
L41660 44840
L41720 44870
L41750 44930
L41750 45240
" />
<path d="M41750 44930
L41780 44870
L41840 44840
L41920 44840
L41980 44870
L42010 44930
L42010 45240
" />
<path d="M42210 44640
L42410 45240
L42610 44640
" />
<path d="M42000 46500
L42000 48000
" />
<path d="M42000 43500
L42000 42000
" />
<path d="M42560 46610
L42760 47210
L42960 46610
" />
<path d="M43470 47210
L43120 47210
" />
<path d="M43300 47210
L43300 46610
L43240 46700
L43180 46760
L43120 46780
" />
</g>
<g style="fill:#000000; fill-opacity:0.0; 
stroke:#000000; stroke-width:0; stroke-opacity:1; 
stroke-linecap:round; stroke-linejoin:round;">
</g>
<g style="fill:#000000; fill-opacity:0.0; 
stroke:#000000; stroke-width:100; stroke-opacity:1; 
stroke-linecap:round; stroke-linejoin:round;">
<circle cx="59500" cy="45000" r="1500" /> 
</g>
<g style="fill:#000000; fill-opacity:0.0; 
stroke:#000000; stroke-width:60; stroke-opacity:1; 
stroke-linecap:round; stroke-linejoin:round;">
<path d="M58990 45240
L58990 44840
" />
<path d="M58990 44900
L59020 44870
L59080 44840
L59160 44840
L59220 44870
L59250 44930
L59250 45240
" />
<path d="M59250 44930
L59280 44870
L59340 44840
L59420 44840
L59480 44870
L59510 44930
L59510 45240
" />
<path d="M59710 44640
L59910 45240
L60110 44640
" />
<path d="M59500 46500
L59500 48000
" />
<path d="M59500 43500
L59500 42000
" />
<path d="M60060 46610
L60260 47210
L60460 46610
" />
<path d="M60620 46670
L60650 46640
L60710 46610
L60850 46610
L60910 46640
L60940 46670
L60970 46730
L60970 46780
L60940 46870
L60600 47210
L60970 47210
" />
</g> 
</svg>
