<?xml version="1.0" standalone="no"?>
 <!DOCTYPE svg PUBLIC "-//W3C//DTD SVG 1.1//EN" 
 "http://www.w3.org/Graphics/SVG/1.1/DTD/svg11.dtd"> 
<svg xmlns="http://www.w3.org/2000/svg" version="1.1" 
    width="29.7002cm" height="21.0007cm" viewBox="0 0 116929 82679 ">
<title>SVG Picture created as SR.svg date 2014/10/07 21:35:53 </title>
  <desc>Picture generated by Eeschema-SVG </desc>
<g style="fill:#000000; fill-opacity:1;stroke:#000000; stroke-opacity:1;
stroke-linecap:round; stroke-linejoin:round; "
 transform="translate(0 0) scale(1 1)">
</g>
<g style="fill:#000000; fill-opacity:0.0; 
stroke:#000000; stroke-width:0; stroke-opacity:1; 
stroke-linecap:round; stroke-linejoin:round;">
</g>
<g style="fill:#000000; fill-opacity:0.0; 
stroke:#000000; stroke-width:60; stroke-opacity:1; 
stroke-linecap:round; stroke-linejoin:round;">
<path d="M36810 38640
L37210 38640
L36810 39240
L37210 39240
" />
</g>
<g style="fill:#000000; fill-opacity:0.0; 
stroke:#000000; stroke-width:100; stroke-opacity:1; 
stroke-linecap:round; stroke-linejoin:round;">
<polyline fill="none;"
points="36500,40250
37500,40250
" /> 
<polyline fill="none;"
points="36500,40000
37500,40000
" /> 
<rect x="35500" y="38000" width="3000" height="3000" rx="0" />
</g>
<g style="fill:#000000; fill-opacity:0.0; 
stroke:#000000; stroke-width:60; stroke-opacity:1; 
stroke-linecap:round; stroke-linejoin:round;">
<path d="M37000 38000
L37000 36500
" />
<path d="M36660 37440
L36660 37060
" />
<path d="M36850 37250
L36470 37250
" />
<path d="M38500 39500
L40000 39500
" />
<path d="M38870 38880
L38820 38850
L38750 38850
L38680 38880
L38630 38920
L38610 38970
L38590 39070
L38590 39140
L38610 39230
L38630 39280
L38680 39330
L38750 39350
L38800 39350
L38870 39330
L38890 39300
L38890 39140
L38800 39140
" />
<path d="M39110 39350
L39110 38850
L39390 39350
L39390 38850
" />
<path d="M39630 39350
L39630 38850
L39750 38850
L39820 38880
L39870 38920
L39890 38970
L39910 39070
L39910 39140
L39890 39230
L39870 39280
L39820 39330
L39750 39350
L39630 39350
" />
<path d="M37000 41000
L37000 42500
" />
<path d="M36850 41750
L36350 41750
" />
<path d="M37590 41610
L37990 41610
L37590 42210
L37990 42210
" />
<path d="M38530 42210
L38180 42210
" />
<path d="M38360 42210
L38360 41610
L38300 41700
L38240 41760
L38180 41780
" />
</g>
<g style="fill:#000000; fill-opacity:0.0; 
stroke:#000000; stroke-width:0; stroke-opacity:1; 
stroke-linecap:round; stroke-linejoin:round;">
</g>
<g style="fill:#000000; fill-opacity:0.0; 
stroke:#000000; stroke-width:100; stroke-opacity:1; 
stroke-linecap:round; stroke-linejoin:round;">
<polyline fill="none;"
points="40000,48000
41000,48000
" /> 
</g>
<g style="fill:#000000; fill-opacity:0.0; 
stroke:#000000; stroke-width:60; stroke-opacity:1; 
stroke-linecap:round; stroke-linejoin:round;">
<polyline fill="none;"
points="40500,48000
40500,47500
" /> 
<path d="M40000 39500
L40500 39500
" />
<path d="M40500 39500
L40500 47500
" />
</g>
<g style="fill:#000000; fill-opacity:0.0; 
stroke:#000000; stroke-width:0; stroke-opacity:1; 
stroke-linecap:round; stroke-linejoin:round;">
</g>
<g style="fill:#000000; fill-opacity:0.0; 
stroke:#000000; stroke-width:60; stroke-opacity:1; 
stroke-linecap:round; stroke-linejoin:round;">
<polyline fill="none;"
points="37000,44000
37000,44500
37000,44500
" /> 
</g>
<g style="fill:#000000; fill-opacity:1.0; 
stroke:#000000; stroke-width:60; stroke-opacity:1; 
stroke-linecap:round; stroke-linejoin:round;">
<polyline style="fill-rule:evenodd;"
points="37000,44800
36700,44500
37200,44500
37300,44500
37000,44800
37000,44800
37000,44800
" /> 
</g>
<g style="fill:#000000; fill-opacity:0.0; 
stroke:#000000; stroke-width:50; stroke-opacity:1; 
stroke-linecap:round; stroke-linejoin:round;">
<path d="M36460 45030
L36690 45030
" />
<path d="M36990 45140
L36820 45140
" />
<path d="M36900 45140
L36900 44840
L36870 44880
L36850 44910
L36820 44930
" />
<path d="M37110 44870
L37120 44860
L37150 44840
L37220 44840
L37250 44860
L37260 44870
L37280 44900
L37280 44930
L37260 44970
L37090 45140
L37280 45140
" />
<path d="M37370 44840
L37470 45140
L37570 44840
" />
</g>
<g style="fill:#000000; fill-opacity:0.0; 
stroke:#000000; stroke-width:0; stroke-opacity:1; 
stroke-linecap:round; stroke-linejoin:round;">
</g>
<g style="fill:#000000; fill-opacity:0.0; 
stroke:#000000; stroke-width:60; stroke-opacity:1; 
stroke-linecap:round; stroke-linejoin:round;">
<circle cx="37000" cy="34400" r="200" /> 
<polyline fill="none;"
points="37000,35000
37000,34600
37000,34600
" /> 
</g>
<g style="fill:#000000; fill-opacity:0.0; 
stroke:#000000; stroke-width:50; stroke-opacity:1; 
stroke-linecap:round; stroke-linejoin:round;">
<path d="M36470 33990
L36700 33990
" />
<path d="M36590 34100
L36590 33870
" />
<path d="M37000 34100
L36830 34100
" />
<path d="M36910 34100
L36910 33800
L36880 33840
L36860 33870
L36830 33890
" />
<path d="M37120 33830
L37130 33820
L37160 33800
L37230 33800
L37260 33820
L37270 33830
L37290 33860
L37290 33890
L37270 33930
L37100 34100
L37290 34100
" />
<path d="M37380 33800
L37480 34100
L37580 33800
" />
</g>
<g style="fill:#000000; fill-opacity:0.0; 
stroke:#000000; stroke-width:60; stroke-opacity:1; 
stroke-linecap:round; stroke-linejoin:round;">
<path d="M37000 35000
L37000 36500
" />
<path d="M37000 42500
L37000 44000
" />
</g>
<g style="fill:#000000; fill-opacity:0.0; 
stroke:#000000; stroke-width:0; stroke-opacity:1; 
stroke-linecap:round; stroke-linejoin:round;">
</g>
<g style="fill:#000000; fill-opacity:0.0; 
stroke:#000000; stroke-width:60; stroke-opacity:1; 
stroke-linecap:round; stroke-linejoin:round;">
<circle cx="51000" cy="34400" r="200" /> 
<polyline fill="none;"
points="51000,35000
51000,34600
51000,34600
" /> 
</g>
<g style="fill:#000000; fill-opacity:0.0; 
stroke:#000000; stroke-width:50; stroke-opacity:1; 
stroke-linecap:round; stroke-linejoin:round;">
<path d="M50470 33990
L50700 33990
" />
<path d="M50590 34100
L50590 33870
" />
<path d="M51000 34100
L50830 34100
" />
<path d="M50910 34100
L50910 33800
L50880 33840
L50860 33870
L50830 33890
" />
<path d="M51120 33830
L51130 33820
L51160 33800
L51230 33800
L51260 33820
L51270 33830
L51290 33860
L51290 33890
L51270 33930
L51100 34100
L51290 34100
" />
<path d="M51380 33800
L51480 34100
L51580 33800
" />
</g>
<g style="fill:#000000; fill-opacity:0.0; 
stroke:#000000; stroke-width:0; stroke-opacity:1; 
stroke-linecap:round; stroke-linejoin:round;">
</g>
<g style="fill:#000000; fill-opacity:0.0; 
stroke:#000000; stroke-width:60; stroke-opacity:1; 
stroke-linecap:round; stroke-linejoin:round;">
<polyline fill="none;"
points="51000,44000
51000,44500
51000,44500
" /> 
</g>
<g style="fill:#000000; fill-opacity:1.0; 
stroke:#000000; stroke-width:60; stroke-opacity:1; 
stroke-linecap:round; stroke-linejoin:round;">
<polyline style="fill-rule:evenodd;"
points="51000,44800
50700,44500
51200,44500
51300,44500
51000,44800
51000,44800
51000,44800
" /> 
</g>
<g style="fill:#000000; fill-opacity:0.0; 
stroke:#000000; stroke-width:50; stroke-opacity:1; 
stroke-linecap:round; stroke-linejoin:round;">
<path d="M50460 45030
L50690 45030
" />
<path d="M50990 45140
L50820 45140
" />
<path d="M50900 45140
L50900 44840
L50870 44880
L50850 44910
L50820 44930
" />
<path d="M51110 44870
L51120 44860
L51150 44840
L51220 44840
L51250 44860
L51260 44870
L51280 44900
L51280 44930
L51260 44970
L51090 45140
L51280 45140
" />
<path d="M51370 44840
L51470 45140
L51570 44840
" />
</g>
<g style="fill:#000000; fill-opacity:0.0; 
stroke:#000000; stroke-width:60; stroke-opacity:1; 
stroke-linecap:round; stroke-linejoin:round;">
<path d="M51000 43500
L51000 44000
" />
<path d="M51000 35500
L51000 35000
" />
</g>
<g style="fill:#000000; fill-opacity:0.0; 
stroke:#000000; stroke-width:0; stroke-opacity:1; 
stroke-linecap:round; stroke-linejoin:round;">
</g>
<g style="fill:#000000; fill-opacity:0.0; 
stroke:#000000; stroke-width:100; stroke-opacity:1; 
stroke-linecap:round; stroke-linejoin:round;">
<polyline fill="none;"
points="49000,41500
53000,39500
49000,37500
49000,41500
" /> 
</g>
<g style="fill:#000000; fill-opacity:0.0; 
stroke:#000000; stroke-width:60; stroke-opacity:1; 
stroke-linecap:round; stroke-linejoin:round;">
<path d="M49000 38500
L46000 38500
" />
<path d="M49520 38510
L49900 38510
" />
<path d="M47360 37900
L47380 37880
L47430 37850
L47550 37850
L47590 37880
L47620 37900
L47640 37950
L47640 38000
L47620 38070
L47330 38350
L47640 38350
" />
<path d="M49000 40500
L46000 40500
" />
<path d="M49520 40510
L49900 40510
" />
<path d="M49710 40700
L49710 40320
" />
<path d="M47330 39850
L47640 39850
L47470 40040
L47550 40040
L47590 40070
L47620 40090
L47640 40140
L47640 40260
L47620 40300
L47590 40330
L47550 40350
L47400 40350
L47360 40330
L47330 40300
" />
<path d="M51000 40500
L51000 43500
" />
<path d="M50520 41910
L50850 41910
" />
<path d="M50330 42030
L50690 42140
L50690 41840
" />
<path d="M53000 39500
L56000 39500
" />
<path d="M54590 38850
L54500 38850
L54450 38880
L54430 38900
L54380 38970
L54360 39070
L54360 39260
L54380 39300
L54400 39330
L54450 39350
L54550 39350
L54590 39330
L54620 39300
L54640 39260
L54640 39140
L54620 39090
L54590 39070
L54550 39040
L54450 39040
L54400 39070
L54380 39090
L54360 39140
" />
<path d="M51000 38500
L51000 35500
" />
<path d="M50350 37170
L50350 36840
L50850 37050
" />
<path d="M52140 40710
L52140 40110
" />
<path d="M52550 40110
L52660 40110
L52720 40140
L52780 40200
L52800 40310
L52800 40510
L52780 40630
L52720 40680
L52660 40710
L52550 40710
L52490 40680
L52430 40630
L52400 40510
L52400 40310
L52430 40200
L52490 40140
L52550 40110
" />
<path d="M53380 40710
L53030 40710
" />
<path d="M53210 40710
L53210 40110
L53150 40200
L53090 40260
L53030 40280
" />
<path d="M45430 41710
L45430 41110
L45630 41540
L45830 41110
L45830 41710
" />
<path d="M46090 41540
L46380 41540
" />
<path d="M46040 41710
L46240 41110
L46440 41710
" />
<path d="M46600 41540
L46890 41540
" />
<path d="M46550 41710
L46750 41110
L46950 41710
" />
<path d="M47090 41110
L47490 41110
L47230 41710
" />
<path d="M47970 41310
L47970 41710
" />
<path d="M47830 41080
L47680 41510
L48060 41510
" />
<path d="M48600 41710
L48250 41710
" />
<path d="M48430 41710
L48430 41110
L48370 41200
L48310 41260
L48250 41280
" />
</g>
<g style="fill:#000000; fill-opacity:0.0; 
stroke:#000000; stroke-width:0; stroke-opacity:1; 
stroke-linecap:round; stroke-linejoin:round;">
</g>
<g style="fill:#000000; fill-opacity:0.0; 
stroke:#000000; stroke-width:100; stroke-opacity:1; 
stroke-linecap:round; stroke-linejoin:round;">
<polyline fill="none;"
points="43000,48000
44000,48000
" /> 
</g>
<g style="fill:#000000; fill-opacity:0.0; 
stroke:#000000; stroke-width:60; stroke-opacity:1; 
stroke-linecap:round; stroke-linejoin:round;">
<polyline fill="none;"
points="43500,48000
43500,47500
" /> 
<path d="M43500 47000
L43500 47500
" />
<path d="M46000 40500
L43500 40500
" />
<path d="M43500 40500
L43500 41000
" />
<path d="M56000 39500
L57000 39500
" />
<path d="M56500 33000
L56500 39500
" />
<path d="M43500 38500
L46000 38500
" />
<path d="M43500 33000
L43500 38500
" />
<path d="M56500 33000
L43500 33000
" />
</g>
<g style="fill:#000000; fill-opacity:0.0; 
stroke:#000000; stroke-width:0; stroke-opacity:1; 
stroke-linecap:round; stroke-linejoin:round;">
</g>
<g style="fill:#000000; fill-opacity:0.0; 
stroke:#000000; stroke-width:100; stroke-opacity:1; 
stroke-linecap:round; stroke-linejoin:round;">
<rect x="58500" y="39000" width="7000" height="5000" rx="0" />
</g>
<g style="fill:#000000; fill-opacity:0.0; 
stroke:#000000; stroke-width:60; stroke-opacity:1; 
stroke-linecap:round; stroke-linejoin:round;">
<path d="M58500 39500
L57000 39500
" />
<path d="M59000 39560
L59230 39560
" />
<path d="M58950 39700
L59110 39200
L59280 39700
" />
<path d="M58500 41500
L57000 41500
" />
<path d="M59190 41440
L59260 41460
L59280 41490
L59300 41540
L59300 41610
L59280 41650
L59260 41680
L59210 41700
L59020 41700
L59020 41200
L59190 41200
L59230 41230
L59260 41250
L59280 41300
L59280 41350
L59260 41390
L59230 41420
L59190 41440
L59020 41440
" />
<path d="M58500 43500
L57000 43500
" />
<path d="M59280 43230
L59230 43200
L59160 43200
L59090 43230
L59040 43270
L59020 43320
L59000 43420
L59000 43490
L59020 43580
L59040 43630
L59090 43680
L59160 43700
L59210 43700
L59280 43680
L59300 43650
L59300 43490
L59210 43490
" />
<path d="M59520 43700
L59520 43200
L59800 43700
L59800 43200
" />
<path d="M60040 43700
L60040 43200
L60160 43200
L60230 43230
L60280 43270
L60300 43320
L60320 43420
L60320 43490
L60300 43580
L60280 43630
L60230 43680
L60160 43700
L60040 43700
" />
<path d="M63390 44610
L63500 44610
L63560 44640
L63620 44700
L63640 44810
L63640 45010
L63620 45130
L63560 45180
L63500 45210
L63390 45210
L63330 45180
L63270 45130
L63240 45010
L63240 44810
L63270 44700
L63330 44640
L63390 44610
" />
<path d="M63870 45180
L63960 45210
L64100 45210
L64160 45180
L64190 45160
L64220 45100
L64220 45040
L64190 44980
L64160 44960
L64100 44930
L63990 44900
L63930 44870
L63900 44840
L63870 44780
L63870 44730
L63900 44670
L63930 44640
L63990 44610
L64130 44610
L64220 44640
" />
<path d="M64820 45160
L64790 45180
L64700 45210
L64640 45210
L64560 45180
L64500 45130
L64470 45070
L64440 44960
L64440 44870
L64470 44760
L64500 44700
L64560 44640
L64640 44610
L64700 44610
L64790 44640
L64820 44670
" />
<path d="M65390 45210
L65040 45210
" />
<path d="M65220 45210
L65220 44610
L65160 44700
L65100 44760
L65040 44780
" />
<path d="M60710 41110
L60820 41110
L60880 41140
L60940 41200
L60960 41310
L60960 41510
L60940 41630
L60880 41680
L60820 41710
L60710 41710
L60650 41680
L60590 41630
L60560 41510
L60560 41310
L60590 41200
L60650 41140
L60710 41110
" />
<path d="M61190 41680
L61280 41710
L61420 41710
L61480 41680
L61510 41660
L61540 41600
L61540 41540
L61510 41480
L61480 41460
L61420 41430
L61310 41400
L61250 41370
L61220 41340
L61190 41280
L61190 41230
L61220 41170
L61250 41140
L61310 41110
L61450 41110
L61540 41140
" />
<path d="M62140 41660
L62110 41680
L62020 41710
L61960 41710
L61880 41680
L61820 41630
L61790 41570
L61760 41460
L61760 41370
L61790 41260
L61820 41200
L61880 41140
L61960 41110
L62020 41110
L62110 41140
L62140 41170
" />
<path d="M62390 41480
L62850 41480
" />
<path d="M63100 41170
L63130 41140
L63190 41110
L63330 41110
L63390 41140
L63420 41170
L63450 41230
L63450 41280
L63420 41370
L63080 41710
L63450 41710
" />
</g>
<g style="fill:#000000; fill-opacity:0.0; 
stroke:#000000; stroke-width:0; stroke-opacity:1; 
stroke-linecap:round; stroke-linejoin:round;">
</g>
<g style="fill:#000000; fill-opacity:0.0; 
stroke:#000000; stroke-width:100; stroke-opacity:1; 
stroke-linecap:round; stroke-linejoin:round;">
<polyline fill="none;"
points="56000,48000
57000,48000
" /> 
</g>
<g style="fill:#000000; fill-opacity:0.0; 
stroke:#000000; stroke-width:60; stroke-opacity:1; 
stroke-linecap:round; stroke-linejoin:round;">
<polyline fill="none;"
points="56500,48000
56500,47500
" /> 
<path d="M57000 43500
L56500 43500
" />
<path d="M56500 43500
L56500 47500
" />
<path d="M56260 41260
L56740 41740
" />
<path d="M56740 41260
L56260 41740
" />
<path d="M57000 41500
L56500 41500
" />
</g>
<g style="fill:#000000; fill-opacity:0.0; 
stroke:#000000; stroke-width:0; stroke-opacity:1; 
stroke-linecap:round; stroke-linejoin:round;">
</g>
<g style="fill:#000000; fill-opacity:1.0; 
stroke:#000000; stroke-width:100; stroke-opacity:1; 
stroke-linecap:round; stroke-linejoin:round;">
<circle cx="56500" cy="39500" r="160" /> 
</g>
<g style="fill:#000000; fill-opacity:1.0; 
stroke:#000000; stroke-width:60; stroke-opacity:1; 
stroke-linecap:round; stroke-linejoin:round;">
<path d="M43500 40000
L44000 40000
" />
<path d="M44000 40000
L44000 39500
" />
<path d="M44000 39500
L44500 39500
" />
<path d="M44500 39500
L44500 40000
" />
<path d="M44500 40000
L45000 40000
" />
<path d="M45000 40000
L45000 39500
" />
<path d="M45000 39500
L45500 39500
" />
</g>
<g style="fill:#000000; fill-opacity:1.0; 
stroke:#000000; stroke-width:0; stroke-opacity:1; 
stroke-linecap:round; stroke-linejoin:round;">
</g>
<g style="fill:#000000; fill-opacity:0.0; 
stroke:#000000; stroke-width:60; stroke-opacity:1; 
stroke-linecap:round; stroke-linejoin:round;">
<path d="M43290 43930
L43090 43930
" />
<path d="M43090 44240
L43090 43640
L43380 43640
" />
<path d="M43920 43670
L43860 43640
L43770 43640
L43690 43670
L43630 43730
L43600 43790
L43570 43900
L43570 43990
L43600 44100
L43630 44160
L43690 44210
L43770 44240
L43830 44240
L43920 44210
L43950 44190
L43950 43990
L43830 43990
" />
<polyline fill="none;"
points="41500,46000
42000,45500
" /> 
<polyline fill="none;"
points="45000,42500
45500,42000
" /> 
</g>
<g style="fill:#000000; fill-opacity:1.0; 
stroke:#000000; stroke-width:60; stroke-opacity:1; 
stroke-linecap:round; stroke-linejoin:round;">
<polyline style="fill-rule:evenodd;"
points="45500,42000
45500,42400
45100,42000
45500,42000
" /> 
</g>
<g style="fill:#000000; fill-opacity:0.0; 
stroke:#000000; stroke-width:100; stroke-opacity:1; 
stroke-linecap:round; stroke-linejoin:round;">
<rect x="42000" y="42500" width="3000" height="3000" rx="0" />
</g>
<g style="fill:#000000; fill-opacity:0.0; 
stroke:#000000; stroke-width:60; stroke-opacity:1; 
stroke-linecap:round; stroke-linejoin:round;">
<path d="M43500 45500
L43500 47000
" />
<path d="M43500 42500
L43500 41000
" />
</g> 
</svg>
