<?xml version="1.0" standalone="no"?>
 <!DOCTYPE svg PUBLIC "-//W3C//DTD SVG 1.1//EN" 
 "http://www.w3.org/Graphics/SVG/1.1/DTD/svg11.dtd"> 
<svg xmlns="http://www.w3.org/2000/svg" version="1.1" 
    width="29.7002cm" height="21.0007cm" viewBox="0 0 116929 82679 ">
<title>SVG Picture created as U_IO.svg date 2014/10/07 20:46:15 </title>
  <desc>Picture generated by Eeschema-SVG </desc>
<g style="fill:#000000; fill-opacity:1;stroke:#000000; stroke-opacity:1;
stroke-linecap:round; stroke-linejoin:round; "
 transform="translate(0 0) scale(1 1)">
</g>
<g style="fill:#000000; fill-opacity:0.0; 
stroke:#000000; stroke-width:0; stroke-opacity:1; 
stroke-linecap:round; stroke-linejoin:round;">
</g>
<g style="fill:#000000; fill-opacity:0.0; 
stroke:#000000; stroke-width:100; stroke-opacity:1; 
stroke-linecap:round; stroke-linejoin:round;">
<polyline fill="none;"
points="49000,41500
53000,39500
49000,37500
49000,41500
" /> 
</g>
<g style="fill:#000000; fill-opacity:0.0; 
stroke:#000000; stroke-width:60; stroke-opacity:1; 
stroke-linecap:round; stroke-linejoin:round;">
<path d="M49000 38500
L46000 38500
" />
<path d="M49520 38510
L49900 38510
" />
<path d="M47360 37900
L47380 37880
L47430 37850
L47550 37850
L47590 37880
L47620 37900
L47640 37950
L47640 38000
L47620 38070
L47330 38350
L47640 38350
" />
<path d="M49000 40500
L46000 40500
" />
<path d="M49520 40510
L49900 40510
" />
<path d="M49710 40700
L49710 40320
" />
<path d="M47330 39850
L47640 39850
L47470 40040
L47550 40040
L47590 40070
L47620 40090
L47640 40140
L47640 40260
L47620 40300
L47590 40330
L47550 40350
L47400 40350
L47360 40330
L47330 40300
" />
<path d="M51000 40500
L51000 43500
" />
<path d="M50520 41910
L50850 41910
" />
<path d="M50330 42030
L50690 42140
L50690 41840
" />
<path d="M53000 39500
L56000 39500
" />
<path d="M54590 38850
L54500 38850
L54450 38880
L54430 38900
L54380 38970
L54360 39070
L54360 39260
L54380 39300
L54400 39330
L54450 39350
L54550 39350
L54590 39330
L54620 39300
L54640 39260
L54640 39140
L54620 39090
L54590 39070
L54550 39040
L54450 39040
L54400 39070
L54380 39090
L54360 39140
" />
<path d="M51000 38500
L51000 35500
" />
<path d="M50350 37170
L50350 36840
L50850 37050
" />
<path d="M52140 40710
L52140 40110
" />
<path d="M52550 40110
L52660 40110
L52720 40140
L52780 40200
L52800 40310
L52800 40510
L52780 40630
L52720 40680
L52660 40710
L52550 40710
L52490 40680
L52430 40630
L52400 40510
L52400 40310
L52430 40200
L52490 40140
L52550 40110
" />
<path d="M53380 40710
L53030 40710
" />
<path d="M53210 40710
L53210 40110
L53150 40200
L53090 40260
L53030 40280
" />
<path d="M45430 41710
L45430 41110
L45630 41540
L45830 41110
L45830 41710
" />
<path d="M46090 41540
L46380 41540
" />
<path d="M46040 41710
L46240 41110
L46440 41710
" />
<path d="M46600 41540
L46890 41540
" />
<path d="M46550 41710
L46750 41110
L46950 41710
" />
<path d="M47090 41110
L47490 41110
L47230 41710
" />
<path d="M47970 41310
L47970 41710
" />
<path d="M47830 41080
L47680 41510
L48060 41510
" />
<path d="M48600 41710
L48250 41710
" />
<path d="M48430 41710
L48430 41110
L48370 41200
L48310 41260
L48250 41280
" />
</g>
<g style="fill:#000000; fill-opacity:0.0; 
stroke:#000000; stroke-width:0; stroke-opacity:1; 
stroke-linecap:round; stroke-linejoin:round;">
</g>
<g style="fill:#000000; fill-opacity:0.0; 
stroke:#000000; stroke-width:60; stroke-opacity:1; 
stroke-linecap:round; stroke-linejoin:round;">
<path d="M36810 38640
L37210 38640
L36810 39240
L37210 39240
" />
</g>
<g style="fill:#000000; fill-opacity:0.0; 
stroke:#000000; stroke-width:100; stroke-opacity:1; 
stroke-linecap:round; stroke-linejoin:round;">
<polyline fill="none;"
points="36500,40250
37500,40250
" /> 
<polyline fill="none;"
points="36500,40000
37500,40000
" /> 
<rect x="35500" y="38000" width="3000" height="3000" rx="0" />
</g>
<g style="fill:#000000; fill-opacity:0.0; 
stroke:#000000; stroke-width:60; stroke-opacity:1; 
stroke-linecap:round; stroke-linejoin:round;">
<path d="M37000 38000
L37000 36500
" />
<path d="M36660 37440
L36660 37060
" />
<path d="M36850 37250
L36470 37250
" />
<path d="M38500 39500
L40000 39500
" />
<path d="M38870 38880
L38820 38850
L38750 38850
L38680 38880
L38630 38920
L38610 38970
L38590 39070
L38590 39140
L38610 39230
L38630 39280
L38680 39330
L38750 39350
L38800 39350
L38870 39330
L38890 39300
L38890 39140
L38800 39140
" />
<path d="M39110 39350
L39110 38850
L39390 39350
L39390 38850
" />
<path d="M39630 39350
L39630 38850
L39750 38850
L39820 38880
L39870 38920
L39890 38970
L39910 39070
L39910 39140
L39890 39230
L39870 39280
L39820 39330
L39750 39350
L39630 39350
" />
<path d="M37000 41000
L37000 42500
" />
<path d="M36850 41750
L36350 41750
" />
<path d="M37590 41610
L37990 41610
L37590 42210
L37990 42210
" />
<path d="M38530 42210
L38180 42210
" />
<path d="M38360 42210
L38360 41610
L38300 41700
L38240 41760
L38180 41780
" />
</g>
<g style="fill:#000000; fill-opacity:0.0; 
stroke:#000000; stroke-width:0; stroke-opacity:1; 
stroke-linecap:round; stroke-linejoin:round;">
</g>
<g style="fill:#000000; fill-opacity:0.0; 
stroke:#000000; stroke-width:100; stroke-opacity:1; 
stroke-linecap:round; stroke-linejoin:round;">
<circle cx="56500" cy="43000" r="1500" /> 
</g>
<g style="fill:#000000; fill-opacity:0.0; 
stroke:#000000; stroke-width:60; stroke-opacity:1; 
stroke-linecap:round; stroke-linejoin:round;">
<path d="M56310 42640
L56510 43240
L56710 42640
" />
<path d="M56500 41500
L56500 40000
" />
<path d="M56160 40940
L56160 40560
" />
<path d="M56350 40750
L55970 40750
" />
<path d="M56500 44500
L56500 46000
" />
<path d="M57140 45210
L57140 44610
L57290 44610
L57370 44640
L57430 44700
L57460 44760
L57490 44870
L57490 44960
L57460 45070
L57430 45130
L57370 45180
L57290 45210
L57140 45210
" />
<path d="M57740 45210
L57740 44610
L57940 45040
L58140 44610
L58140 45210
" />
<path d="M58430 45210
L58430 44610
L58630 45040
L58830 44610
L58830 45210
" />
<path d="M59440 45210
L59090 45210
" />
<path d="M59270 45210
L59270 44610
L59210 44700
L59150 44760
L59090 44780
" />
</g>
<g style="fill:#000000; fill-opacity:0.0; 
stroke:#000000; stroke-width:0; stroke-opacity:1; 
stroke-linecap:round; stroke-linejoin:round;">
</g>
<g style="fill:#000000; fill-opacity:0.0; 
stroke:#000000; stroke-width:60; stroke-opacity:1; 
stroke-linecap:round; stroke-linejoin:round;">
<rect x="42500" y="33500" width="1000" height="3000" rx="0" />
<path d="M43000 33500
L43000 32000
" />
<path d="M43000 36500
L43000 38000
" />
<path d="M41320 35770
L41120 35490
" />
<path d="M40970 35770
L40970 35170
L41200 35170
L41260 35200
L41290 35230
L41320 35290
L41320 35370
L41290 35430
L41260 35460
L41200 35490
L40970 35490
" />
<path d="M41540 35230
L41570 35200
L41630 35170
L41770 35170
L41830 35200
L41860 35230
L41890 35290
L41890 35340
L41860 35430
L41520 35770
L41890 35770
" />
</g>
<g style="fill:#000000; fill-opacity:0.0; 
stroke:#000000; stroke-width:0; stroke-opacity:1; 
stroke-linecap:round; stroke-linejoin:round;">
</g>
<g style="fill:#000000; fill-opacity:0.0; 
stroke:#000000; stroke-width:60; stroke-opacity:1; 
stroke-linecap:round; stroke-linejoin:round;">
<rect x="42500" y="40500" width="1000" height="3000" rx="0" />
<path d="M43000 40500
L43000 39000
" />
<path d="M43000 43500
L43000 45000
" />
<path d="M41320 42770
L41120 42490
" />
<path d="M40970 42770
L40970 42170
L41200 42170
L41260 42200
L41290 42230
L41320 42290
L41320 42370
L41290 42430
L41260 42460
L41200 42490
L40970 42490
" />
<path d="M41890 42770
L41540 42770
" />
<path d="M41720 42770
L41720 42170
L41660 42260
L41600 42320
L41540 42340
" />
</g>
<g style="fill:#000000; fill-opacity:0.0; 
stroke:#000000; stroke-width:0; stroke-opacity:1; 
stroke-linecap:round; stroke-linejoin:round;">
</g>
<g style="fill:#000000; fill-opacity:0.0; 
stroke:#000000; stroke-width:100; stroke-opacity:1; 
stroke-linecap:round; stroke-linejoin:round;">
<polyline fill="none;"
points="42500,47000
43500,47000
" /> 
</g>
<g style="fill:#000000; fill-opacity:0.0; 
stroke:#000000; stroke-width:60; stroke-opacity:1; 
stroke-linecap:round; stroke-linejoin:round;">
<polyline fill="none;"
points="43000,47000
43000,46500
" /> 
</g>
<g style="fill:#000000; fill-opacity:0.0; 
stroke:#000000; stroke-width:0; stroke-opacity:1; 
stroke-linecap:round; stroke-linejoin:round;">
</g>
<g style="fill:#000000; fill-opacity:0.0; 
stroke:#000000; stroke-width:100; stroke-opacity:1; 
stroke-linecap:round; stroke-linejoin:round;">
<polyline fill="none;"
points="44500,47000
45500,47000
" /> 
</g>
<g style="fill:#000000; fill-opacity:0.0; 
stroke:#000000; stroke-width:60; stroke-opacity:1; 
stroke-linecap:round; stroke-linejoin:round;">
<polyline fill="none;"
points="45000,47000
45000,46500
" /> 
<path d="M45000 40500
L45000 46500
" />
<path d="M45000 40500
L46000 40500
" />
<path d="M43000 45000
L43000 46500
" />
<path d="M43000 38000
L43000 39000
" />
<path d="M46000 38500
L43000 38500
" />
</g>
<g style="fill:#000000; fill-opacity:0.0; 
stroke:#000000; stroke-width:0; stroke-opacity:1; 
stroke-linecap:round; stroke-linejoin:round;">
</g>
<g style="fill:#000000; fill-opacity:1.0; 
stroke:#000000; stroke-width:100; stroke-opacity:1; 
stroke-linecap:round; stroke-linejoin:round;">
<circle cx="43000" cy="38500" r="160" /> 
</g>
<g style="fill:#000000; fill-opacity:1.0; 
stroke:#000000; stroke-width:0; stroke-opacity:1; 
stroke-linecap:round; stroke-linejoin:round;">
</g>
<g style="fill:#000000; fill-opacity:0.0; 
stroke:#000000; stroke-width:100; stroke-opacity:1; 
stroke-linecap:round; stroke-linejoin:round;">
<polyline fill="none;"
points="40000,47000
41000,47000
" /> 
</g>
<g style="fill:#000000; fill-opacity:0.0; 
stroke:#000000; stroke-width:60; stroke-opacity:1; 
stroke-linecap:round; stroke-linejoin:round;">
<polyline fill="none;"
points="40500,47000
40500,46500
" /> 
<path d="M40000 39500
L40500 39500
" />
<path d="M40500 39500
L40500 46500
" />
<path d="M43000 32000
L43000 31500
" />
<path d="M43000 31500
L56500 31500
" />
<path d="M56500 31500
L56500 40000
" />
<path d="M56500 39500
L56000 39500
" />
</g>
<g style="fill:#000000; fill-opacity:0.0; 
stroke:#000000; stroke-width:0; stroke-opacity:1; 
stroke-linecap:round; stroke-linejoin:round;">
</g>
<g style="fill:#000000; fill-opacity:0.0; 
stroke:#000000; stroke-width:60; stroke-opacity:1; 
stroke-linecap:round; stroke-linejoin:round;">
<polyline fill="none;"
points="37000,44000
37000,44500
37000,44500
" /> 
</g>
<g style="fill:#000000; fill-opacity:1.0; 
stroke:#000000; stroke-width:60; stroke-opacity:1; 
stroke-linecap:round; stroke-linejoin:round;">
<polyline style="fill-rule:evenodd;"
points="37000,44800
36700,44500
37200,44500
37300,44500
37000,44800
37000,44800
37000,44800
" /> 
</g>
<g style="fill:#000000; fill-opacity:0.0; 
stroke:#000000; stroke-width:50; stroke-opacity:1; 
stroke-linecap:round; stroke-linejoin:round;">
<path d="M36460 45030
L36690 45030
" />
<path d="M36990 45140
L36820 45140
" />
<path d="M36900 45140
L36900 44840
L36870 44880
L36850 44910
L36820 44930
" />
<path d="M37110 44870
L37120 44860
L37150 44840
L37220 44840
L37250 44860
L37260 44870
L37280 44900
L37280 44930
L37260 44970
L37090 45140
L37280 45140
" />
<path d="M37370 44840
L37470 45140
L37570 44840
" />
</g>
<g style="fill:#000000; fill-opacity:0.0; 
stroke:#000000; stroke-width:0; stroke-opacity:1; 
stroke-linecap:round; stroke-linejoin:round;">
</g>
<g style="fill:#000000; fill-opacity:0.0; 
stroke:#000000; stroke-width:60; stroke-opacity:1; 
stroke-linecap:round; stroke-linejoin:round;">
<circle cx="37000" cy="34400" r="200" /> 
<polyline fill="none;"
points="37000,35000
37000,34600
37000,34600
" /> 
</g>
<g style="fill:#000000; fill-opacity:0.0; 
stroke:#000000; stroke-width:50; stroke-opacity:1; 
stroke-linecap:round; stroke-linejoin:round;">
<path d="M36470 33990
L36700 33990
" />
<path d="M36590 34100
L36590 33870
" />
<path d="M37000 34100
L36830 34100
" />
<path d="M36910 34100
L36910 33800
L36880 33840
L36860 33870
L36830 33890
" />
<path d="M37120 33830
L37130 33820
L37160 33800
L37230 33800
L37260 33820
L37270 33830
L37290 33860
L37290 33890
L37270 33930
L37100 34100
L37290 34100
" />
<path d="M37380 33800
L37480 34100
L37580 33800
" />
</g>
<g style="fill:#000000; fill-opacity:0.0; 
stroke:#000000; stroke-width:60; stroke-opacity:1; 
stroke-linecap:round; stroke-linejoin:round;">
<path d="M37000 35000
L37000 36500
" />
<path d="M37000 42500
L37000 44000
" />
</g>
<g style="fill:#000000; fill-opacity:0.0; 
stroke:#000000; stroke-width:0; stroke-opacity:1; 
stroke-linecap:round; stroke-linejoin:round;">
</g>
<g style="fill:#000000; fill-opacity:0.0; 
stroke:#000000; stroke-width:60; stroke-opacity:1; 
stroke-linecap:round; stroke-linejoin:round;">
<circle cx="51000" cy="34400" r="200" /> 
<polyline fill="none;"
points="51000,35000
51000,34600
51000,34600
" /> 
</g>
<g style="fill:#000000; fill-opacity:0.0; 
stroke:#000000; stroke-width:50; stroke-opacity:1; 
stroke-linecap:round; stroke-linejoin:round;">
<path d="M50470 33990
L50700 33990
" />
<path d="M50590 34100
L50590 33870
" />
<path d="M51000 34100
L50830 34100
" />
<path d="M50910 34100
L50910 33800
L50880 33840
L50860 33870
L50830 33890
" />
<path d="M51120 33830
L51130 33820
L51160 33800
L51230 33800
L51260 33820
L51270 33830
L51290 33860
L51290 33890
L51270 33930
L51100 34100
L51290 34100
" />
<path d="M51380 33800
L51480 34100
L51580 33800
" />
</g>
<g style="fill:#000000; fill-opacity:0.0; 
stroke:#000000; stroke-width:0; stroke-opacity:1; 
stroke-linecap:round; stroke-linejoin:round;">
</g>
<g style="fill:#000000; fill-opacity:0.0; 
stroke:#000000; stroke-width:60; stroke-opacity:1; 
stroke-linecap:round; stroke-linejoin:round;">
<polyline fill="none;"
points="51000,44000
51000,44500
51000,44500
" /> 
</g>
<g style="fill:#000000; fill-opacity:1.0; 
stroke:#000000; stroke-width:60; stroke-opacity:1; 
stroke-linecap:round; stroke-linejoin:round;">
<polyline style="fill-rule:evenodd;"
points="51000,44800
50700,44500
51200,44500
51300,44500
51000,44800
51000,44800
51000,44800
" /> 
</g>
<g style="fill:#000000; fill-opacity:0.0; 
stroke:#000000; stroke-width:50; stroke-opacity:1; 
stroke-linecap:round; stroke-linejoin:round;">
<path d="M50460 45030
L50690 45030
" />
<path d="M50990 45140
L50820 45140
" />
<path d="M50900 45140
L50900 44840
L50870 44880
L50850 44910
L50820 44930
" />
<path d="M51110 44870
L51120 44860
L51150 44840
L51220 44840
L51250 44860
L51260 44870
L51280 44900
L51280 44930
L51260 44970
L51090 45140
L51280 45140
" />
<path d="M51370 44840
L51470 45140
L51570 44840
" />
</g>
<g style="fill:#000000; fill-opacity:0.0; 
stroke:#000000; stroke-width:60; stroke-opacity:1; 
stroke-linecap:round; stroke-linejoin:round;">
<path d="M51000 43500
L51000 44000
" />
<path d="M51000 35500
L51000 35000
" />
</g>
<g style="fill:#000000; fill-opacity:0.0; 
stroke:#000000; stroke-width:0; stroke-opacity:1; 
stroke-linecap:round; stroke-linejoin:round;">
</g>
<g style="fill:#000000; fill-opacity:0.0; 
stroke:#000000; stroke-width:100; stroke-opacity:1; 
stroke-linecap:round; stroke-linejoin:round;">
<polyline fill="none;"
points="56000,47000
57000,47000
" /> 
</g>
<g style="fill:#000000; fill-opacity:0.0; 
stroke:#000000; stroke-width:60; stroke-opacity:1; 
stroke-linecap:round; stroke-linejoin:round;">
<polyline fill="none;"
points="56500,47000
56500,46500
" /> 
<path d="M56500 46000
L56500 46500
" />
</g>
<g style="fill:#000000; fill-opacity:0.0; 
stroke:#000000; stroke-width:0; stroke-opacity:1; 
stroke-linecap:round; stroke-linejoin:round;">
</g>
<g style="fill:#000000; fill-opacity:1.0; 
stroke:#000000; stroke-width:100; stroke-opacity:1; 
stroke-linecap:round; stroke-linejoin:round;">
<circle cx="56500" cy="39500" r="160" /> 
</g>
<g style="fill:#000000; fill-opacity:1.0; 
stroke:#000000; stroke-width:60; stroke-opacity:1; 
stroke-linecap:round; stroke-linejoin:round;">
<path d="M45000 38750
L45000 40250
" />
<path d="M45000 40250
L45250 39750
" />
<path d="M45000 40250
L44750 39750
" />
</g>
<g style="fill:#000000; fill-opacity:1.0; 
stroke:#000000; stroke-width:50; stroke-opacity:1; 
stroke-linecap:round; stroke-linejoin:round;">
</g>
<g style="fill:#000000; fill-opacity:0.0; 
stroke:#000000; stroke-width:50; stroke-opacity:1; 
stroke-linecap:round; stroke-linejoin:round;">
<path d="M44260 39070
L44260 39310
L44280 39340
L44290 39360
L44320 39370
L44380 39370
L44400 39360
L44420 39340
L44430 39310
L44430 39070
" />
</g>
<g style="fill:#000000; fill-opacity:0.0; 
stroke:#000000; stroke-width:30; stroke-opacity:1; 
stroke-linecap:round; stroke-linejoin:round;">
<path d="M44490 39380
L44490 39180
" />
<path d="M44630 39180
L44660 39180
L44680 39190
L44700 39210
L44710 39250
L44710 39310
L44700 39350
L44680 39370
L44660 39380
L44630 39380
L44610 39370
L44590 39350
L44580 39310
L44580 39250
L44590 39210
L44610 39190
L44630 39180
" />
</g>
<g style="fill:#000000; fill-opacity:0.0; 
stroke:#000000; stroke-width:60; stroke-opacity:1; 
stroke-linecap:round; stroke-linejoin:round;">
<path d="M54500 39750
L54500 46500
" />
<path d="M54500 46500
L54750 46000
" />
<path d="M54500 46500
L54250 46000
" />
</g>
<g style="fill:#000000; fill-opacity:0.0; 
stroke:#000000; stroke-width:50; stroke-opacity:1; 
stroke-linecap:round; stroke-linejoin:round;">
<path d="M53760 42820
L53760 43060
L53780 43090
L53790 43110
L53820 43120
L53880 43120
L53900 43110
L53920 43090
L53930 43060
L53930 42820
" />
</g>
<g style="fill:#000000; fill-opacity:0.0; 
stroke:#000000; stroke-width:30; stroke-opacity:1; 
stroke-linecap:round; stroke-linejoin:round;">
<path d="M54100 42950
L54110 42940
L54130 42930
L54170 42930
L54190 42940
L54200 42950
L54210 42970
L54210 42990
L54200 43020
L54090 43130
L54210 43130
" />
</g> 
</svg>
